<?xml version="1.0" encoding="utf-8"?>
<!-- Generator: Adobe Illustrator 27.5.0, SVG Export Plug-In . SVG Version: 6.00 Build 0)  -->
<svg version="1.1" xmlns="http://www.w3.org/2000/svg" xmlns:xlink="http://www.w3.org/1999/xlink" x="0px" y="0px"
	 viewBox="0 0 500 500" style="enable-background:new 0 0 500 500;" xml:space="preserve">
<g id="Background">
	<rect style="fill:#FFFFFF;" width="500" height="500"/>
</g>
<g id="Objects">
	<g>
		<path d="M169.623,251.738c0.234-0.049,0.618-0.03,0.676-0.159c0.425-0.939,0.825-1.895,1.158-2.871
			c1.308-3.833,2.826-7.578,4.591-11.225c1.73-3.574,3.7-7,6.134-10.149c1.81-2.342,3.986-4.262,6.482-5.857
			c2.323-1.484,4.822-1.699,7.447-1.292c0.338,0.052,0.662,0.193,0.998,0.266c5.648,1.238,7.84,3.674,10.105,9.545
			c0.9,2.334,1.204,4.826,1.551,7.306c0.633,4.517,1.409,9.013,2.141,13.516c0.442,2.718,0.793,5.458,1.401,8.14
			c0.78,3.436,1.76,6.826,2.69,10.226c0.274,1.003,0.765,1.917,1.537,2.651c1.093,1.04,2.332,1.484,3.765,0.8
			c1.005-0.479,2.034-0.961,2.928-1.612c3.173-2.308,5.76-5.166,7.684-8.601c1.01-1.803,1.989-3.622,2.992-5.428
			c2.314-4.167,5.078-7.997,8.608-11.226c0.885-0.81,1.24-1.719,1.4-2.894c0.584-4.284,1.685-8.47,3.481-12.389
			c2.624-5.725,6.687-10.219,12.488-12.895c2.803-1.294,5.784-1.618,8.824-0.793c3.639,0.987,5.798,4.834,4.749,8.476
			c-0.389,1.351-1.126,2.499-2.05,3.547c-3.23,3.668-7.077,6.508-11.43,8.715c-2.455,1.245-4.82,2.666-7.254,3.953
			c-1.033,0.546-1.457,1.324-1.525,2.469c-0.157,2.685,0.155,5.346,0.532,7.977c0.451,3.145,1.152,6.26,1.858,9.362
			c0.584,2.563,1.729,4.861,3.774,6.62c0.872,0.75,1.84,1.32,3.022,1.262c0.672-0.034,1.398-0.12,1.989-0.41
			c1.863-0.914,3.595-2.044,4.992-3.613c2.582-2.9,4.934-5.98,6.966-9.289c1.576-2.567,3.035-5.207,4.591-7.787
			c2-3.316,3.977-6.649,6.089-9.893c2.145-3.296,5.021-5.893,8.352-7.963c3.963-2.463,9.514-0.789,11.737,3.518
			c0.716,1.387,1.206,2.867,1.193,4.451c-0.04,4.56,0.241,9.126-0.263,13.679c-0.475,4.284-0.563,8.583-0.351,12.887
			c0.015,0.302,0.12,0.599,0.261,1.27c0.445-0.521,0.692-0.729,0.837-0.993c0.871-1.582,1.81-3.135,2.557-4.775
			c2.356-5.169,4.64-10.37,6.945-15.562c0.978-2.202,1.929-4.415,2.915-6.612c0.426-0.948,0.935-1.85,1.912-2.347
			c3.298,0.622,4.461,1.725,4.96,4.96c0.235,1.522,0.344,3.082,0.323,4.622c-0.047,3.44-0.251,6.878-0.317,10.319
			c-0.065,3.357-0.091,6.716-0.028,10.073c0.031,1.627,0.299,3.249,0.469,4.873c0.131,1.248,0.767,2.237,1.604,3.302
			c0.532-0.252,1.034-0.38,1.393-0.679c1.612-1.34,2.825-3.004,3.746-4.882c2.243-4.574,4.04-9.289,5.154-14.291
			c0.84-3.77,1.982-7.485,3.194-11.157c2.174-6.586,6.813-11.085,12.828-14.186c2.742-1.413,5.719-2.365,8.573-3.567
			c3.092-1.302,6.175-2.626,9.241-3.988c2.059-0.915,3.864-2.232,5.607-3.657c2.007-1.64,2.198-3.787,1.849-6.092
			c-0.072-0.473-0.388-0.969-0.725-1.328c-0.526-0.559-1.133-1.058-1.765-1.497c-1.365-0.948-2.836-1.192-4.403-0.49
			c-0.517,0.231-1.05,0.426-1.913,0.773c1.007-1.634,2.116-2.5,3.61-2.8c1.498-0.3,2.885,0.033,4.196,0.838
			c4.325,2.653,5.041,8.329,1.456,11.942c-1.712,1.725-3.707,3.079-5.87,4.178c-3.766,1.914-7.659,3.52-11.665,4.864
			c-2.201,0.738-4.401,1.507-6.527,2.433c-1.406,0.612-2.735,1.447-4.006,2.317c-5.072,3.475-8.076,8.357-9.538,14.261
			c-0.848,3.424-1.724,6.841-2.562,10.267c-1.172,4.79-2.961,9.353-5.168,13.746c-1.262,2.512-3.182,4.467-5.659,5.864
			c-1.999,1.128-4.03,1.072-5.891-0.081c-2.963-1.835-5.002-4.375-5.563-7.986c-0.56-3.606-0.652-7.193-0.165-10.805
			c0.677-5.021,1.336-10.044,2.029-15.272c-0.305,0.429-0.577,0.708-0.729,1.041c-2.558,5.643-5.1,11.294-7.646,16.942
			c-1.307,2.899-2.623,5.795-3.923,8.698c-0.83,1.854-2.164,3.104-4.207,3.43c-2.395,0.382-4.339-0.839-4.839-3.194
			c-0.373-1.758-0.676-3.583-0.624-5.366c0.107-3.696,0.412-7.39,0.746-11.075c0.366-4.028,0.875-8.043,1.284-12.067
			c0.104-1.024,0.149-2.069,0.068-3.092c-0.067-0.843-0.23-1.728-0.58-2.49c-1.085-2.363-2.95-3.368-5.433-1.932
			c-0.666,0.385-1.32,0.815-1.905,1.312c-1.983,1.685-3.68,3.624-4.986,5.885c-3.057,5.291-6.099,10.591-9.161,15.88
			c-2.072,3.579-4.235,7.099-6.89,10.289c-1.382,1.661-2.972,3.095-4.624,4.489c-4.084,3.445-10.894,2.897-14.409,0.923
			c-2.26-1.269-3.944-3.009-5.003-5.38c-2.169-4.854-3.522-9.882-3.365-15.248c0.027-0.927,0.004-1.855,0.004-2.705
			c-0.719-0.307-1.007,0.098-1.251,0.401c-1.185,1.474-2.446,2.904-3.471,4.485c-2.342,3.611-4.58,7.29-6.826,10.963
			c-1.311,2.144-2.892,4.07-4.592,5.903c-1.786,1.927-3.996,3.237-6.384,4.291c-2.04,0.9-4.172,1.084-6.327,0.775
			c-3.413-0.489-5.882-2.431-7.346-5.479c-0.849-1.767-1.588-3.675-1.901-5.596c-1.023-6.282-2.066-12.566-2.326-18.953
			c-0.158-3.867-0.548-7.727-0.94-11.579c-0.147-1.443-0.565-2.864-0.915-4.281c-0.65-2.632-2.283-4.599-4.367-6.225
			c-1.636-1.277-3.417-1.513-5.32-0.598c-3.351,1.611-5.908,4.122-8.037,7.108c-0.449,0.629-0.855,1.296-1.212,1.982
			c-3.216,6.185-6.525,12.331-8.851,18.928c-1.486,4.216-2.871,8.468-4.306,12.701c-0.525,1.548-1.003,3.117-1.615,4.63
			c-0.604,1.495-1.654,2.085-3.247,2.014c-0.341-0.015-0.682-0.092-1.018-0.163c-2.327-0.486-3.073-1.316-3.036-3.74
			c0.022-1.452,0.154-2.938,0.497-4.345c1.473-6.043,2.236-12.175,2.73-18.366c0.274-3.438,0.528-6.865,0.439-10.313
			c-0.053-2.081-0.387-4.116-1.078-6.079c-0.951-2.699-3.11-4.014-5.692-4.762c-0.466-0.135-1.035-0.046-1.528,0.065
			c-1.512,0.339-2.982,0.783-4.362,1.544c-3.597,1.984-6.65,4.586-9.178,7.816c-4.213,5.381-7.036,11.419-8.377,18.113
			c-0.661,3.296-1.077,6.646-0.38,10.001c0.207,0.996,0.551,1.988,0.991,2.905c0.697,1.456,2.06,2.031,3.563,2.244
			c0.922,0.131,1.712-0.29,2.239-1.033c1.987-2.8,3.099-5.76,1.574-9.178c-0.411-0.921-0.734-1.88-1.068-2.744
			c0.429-0.51,0.75-0.249,0.999-0.082c0.803,0.535,1.389,1.251,1.79,2.149c1.174,2.628,1.62,5.256,0.187,7.939
			c-0.567,1.061-1.062,2.167-1.71,3.174c-0.857,1.331-2.194,1.944-3.748,1.906c-2.612-0.064-4.616-1.229-5.866-3.565
			c-0.954-1.784-1.311-3.727-1.39-5.723c-0.186-4.705,0.567-9.289,2.163-13.693c1.647-4.545,3.806-8.852,6.737-12.739
			c3.163-4.195,6.995-7.569,11.747-9.881c2.295-1.116,4.675-1.696,7.23-1.588c4.85,0.204,8.316,2.441,10.287,6.919
			c0.95,2.159,1.367,4.437,1.46,6.774c0.062,1.548,0.091,3.103,0.021,4.649c-0.199,4.384-0.455,8.765-0.677,13.159
			c0.032,0.079,0.047,0.149,0.074,0.214c0.017,0.04,0.052,0.073,0.079,0.109C169.748,251.986,169.686,251.862,169.623,251.738z
			 M252.087,238.719c0.833-0.434,1.298-0.642,1.728-0.907c3.799-2.342,7.631-4.635,11.371-7.068c1.875-1.219,3.446-2.848,4.73-4.693
			c2.113-3.035-0.126-5.974-2.406-6.597c-2.458-0.671-4.919-0.614-7.142,0.988c-1.137,0.82-2.038,1.824-2.828,2.961
			c-1.937,2.787-3.147,5.889-4.028,9.142C253.001,234.436,252.402,236.307,252.087,238.719z"/>
		<path d="M129.763,311.033c-0.404-1.3-0.255-2.49-0.063-3.638c0.754-4.508,1.782-8.96,3.536-13.192
			c1.438-3.469,3.53-6.496,6.668-8.695c1.394-0.977,2.923-1.438,4.623-1.293c0.341,0.029,0.703,0.051,1.011,0.181
			c3.789,1.595,6.996,3.764,7.812,8.19c0.343,1.861,0.795,3.721,0.92,5.601c0.302,4.551,0.693,9.098,0.622,13.672
			c-0.059,3.786-0.015,7.577,0.475,11.349c0.258,1.986,0.814,3.866,1.645,5.679c1.251,2.729,3.467,2.142,4.501,0.329
			c0.806-1.414,1.586-2.878,2.105-4.412c0.853-2.523,1.498-5.117,2.21-7.687c1.631-5.886,2.993-11.85,5.083-17.601
			c0.675-1.859,1.466-3.677,2.257-5.491c0.272-0.623,0.634-1.24,1.084-1.744c0.864-0.966,2.16-1.214,3.254-0.473
			c0.939,0.637,1.798,1.314,2.432,2.271c1.007,1.52,1.721,3.171,2.327,4.881c1.213,3.424,1.864,6.983,2.49,10.541
			c0.969,5.509,1.823,11.039,2.76,16.554c0.765,4.504,1.205,9.042,1.543,13.594c0.202,2.717-0.18,3.003,3.185,3.502
			c9.548,1.417,18.869,3.81,28.129,6.546c14.934,4.413,29.914,8.681,45.159,11.944c6.226,1.332,12.396,2.931,18.624,4.25
			c7.416,1.571,14.912,2.601,22.493,3.053c4.905,0.292,9.8,0.55,14.711,0.308c8.994-0.442,17.743-2.239,26.369-4.743
			c3.823-1.11,7.447-2.648,10.928-4.575c3.507-1.941,6.513-4.494,9.286-7.339c3.255-3.338,5.307-7.43,6.798-11.764
			c1.256-3.651,2.409-7.367,2.694-11.267c0.1-1.373,0.139-2.75,0.245-4.122c0.159-2.057,0.305-4.117,0.555-6.165
			c0.103-0.841,0.369-1.692,0.72-2.466c1.072-2.365,2.896-2.59,4.865-1.318c2.01,1.298,3.06,3.274,3.128,5.653
			c0.055,1.887,0.067,3.806-0.205,5.667c-1.037,7.095-3.708,13.501-7.706,19.511c-4.518,6.793-10.488,11.785-17.396,15.857
			c-3.653,2.153-7.499,3.843-11.556,5.077c-8.095,2.462-16.336,4.204-24.762,5.005c-2.31,0.22-4.644,0.245-6.968,0.27
			c-8.888,0.094-17.71-0.612-26.5-1.976c-6.135-0.952-12.159-2.362-18.19-3.775c-7.121-1.668-14.283-3.178-21.364-5.002
			c-7.914-2.038-15.77-4.309-23.628-6.56c-5.79-1.659-11.543-3.446-17.311-5.181c-6.85-2.06-13.838-3.529-20.853-4.884
			c-0.239-0.046-0.5,0.016-0.934,0.036c0,0.695-0.031,1.367,0.005,2.035c0.295,5.5,0.622,10.999,0.899,16.5
			c0.307,6.122,0.107,12.219-0.926,18.279c-0.964,5.654-2.704,11.031-5.603,15.996c-2.33,3.991-5.401,7.356-9.057,10.155
			c-1.909,1.462-3.863,2.941-5.994,4.022c-7.159,3.63-14.554,3.906-21.968,0.826c-9.549-3.967-14.891-11.381-16.809-21.346
			c-1.295-6.725-0.105-13.197,2.697-19.385c2.819-6.224,7.087-11.378,12.067-15.97c7.522-6.935,16.335-11.38,26.331-13.509
			c2.535-0.54,5.093-0.841,7.686-0.869c0.754-0.008,1.508-0.094,2.195-0.139c0.419-1.016,0.199-1.877,0.099-2.712
			c-0.697-5.812-1.432-11.62-2.145-17.43c-0.471-3.845-0.89-7.698-1.396-11.538c-0.46-3.498-0.989-6.987-1.526-10.474
			c-0.14-0.908-0.42-1.794-0.74-3.12c-0.456,0.819-0.73,1.228-0.925,1.673c-1.558,3.561-2.555,7.305-3.603,11.034
			c-1.489,5.302-2.984,10.602-4.522,15.889c-0.909,3.124-2.697,5.705-4.897,8.095c-2.618,2.844-7.613,2.779-10.169-0.032
			c-1.496-1.645-2.444-3.531-2.794-5.711c-0.876-5.449-1.418-10.929-1.303-16.456c0.101-4.82,0.286-9.64,0.344-14.46
			c0.021-1.715-0.218-3.433-0.344-5.149c-0.119-1.625-0.926-2.946-1.933-4.145c-0.858-1.02-1.739-1.205-3.007-0.716
			c-1.647,0.635-2.93,1.741-4.055,3.092c-2.36,2.833-3.881,6.093-4.932,9.581c-1.068,3.541-2.177,7.077-2.718,10.754
			C130.47,310.393,130.309,310.754,129.763,311.033z M181.752,344.582c-0.69-0.05-1.196-0.112-1.703-0.119
			c-2.764-0.04-5.512,0.152-8.218,0.727c-14.52,3.083-25.835,10.945-34.249,23.081c-1.775,2.559-3.112,5.363-4.084,8.322
			c-1.757,5.346-2.153,10.782-0.87,16.29c0.775,3.327,2.45,6.256,4.442,8.963c1.594,2.166,3.698,3.801,6.226,4.895
			c2.308,0.999,4.666,1.67,7.147,2.107c4.234,0.745,8.303,0.099,12.099-1.593c2.881-1.285,5.511-3.157,7.815-5.424
			c4.073-4.009,6.926-8.763,8.834-14.106c2.157-6.04,3.266-12.288,3.733-18.68c0.321-4.393,0.303-8.775,0.07-13.163
			C182.799,352.182,182.391,348.506,181.752,344.582z"/>
		<path d="M225.324,155.449c-0.463,0.871-0.88,1.596-1.243,2.349c-2.993,6.211-6.211,12.292-10.083,18.014
			c-1.074,1.586-2.295,3.012-3.725,4.265c-0.514,0.45-1.078,0.868-1.678,1.19c-1.785,0.954-3.42,0.431-4.334-1.353
			c-0.6-1.17-0.852-2.434-0.888-3.739c-0.081-2.932-0.039-5.856,0.609-8.739c0.965-4.291,2.047-8.533,4.298-12.384
			c1.311-2.242,2.842-4.31,4.544-6.261c1.967-2.255,4.433-3.87,7.157-4.947c2.156-0.852,4.226-0.024,6.006,1.385
			c0.384,0.304,0.68,0.718,1.172,1.249c0.448-0.939,0.782-1.718,1.182-2.462c0.976-1.815,1.951-3.632,2.99-5.411
			c0.454-0.778,1.119-0.932,2.013-0.69c0.761,0.206,1.198,0.733,1.212,1.482c0.016,0.852-0.011,1.729-0.196,2.555
			c-0.923,4.114-2.083,8.162-3.281,12.207c-1.685,5.689-3.131,11.452-4.548,17.215c-0.469,1.908-0.556,3.914-0.766,5.881
			c-0.051,0.475-0.138,1.058,0.596,1.405c0.207-0.158,0.518-0.308,0.704-0.553c0.784-1.025,1.611-2.03,2.277-3.13
			c3.523-5.823,6.667-11.847,9.543-18.017c1.454-3.12,3.037-6.181,4.621-9.238c0.674-1.303,1.529-2.484,2.861-3.252
			c1.604-0.924,3.303-0.48,4.093,1.203c0.288,0.613,0.475,1.301,0.563,1.974c0.301,2.305,0.565,4.615,0.198,6.946
			c-0.089,0.562-0.013,1.15-0.013,1.746c0.82-0.105,0.952-0.79,1.265-1.259c1.397-2.087,2.971-4.028,4.9-5.634
			c0.913-0.76,1.938-1.478,3.032-1.915c4.259-1.701,7.49,0.176,9.286,3.634c0.432,0.832,0.669,1.766,0.984,2.658
			c0.228,0.645,0.436,1.297,0.703,2.098c0.504-0.339,0.948-0.573,1.314-0.894c1.488-1.307,2.919-2.681,4.438-3.95
			c0.986-0.824,2.067-1.542,3.148-2.244c0.497-0.323,1.074-0.608,1.649-0.708c2.545-0.444,3.632,0.241,4.51,1.987
			c0.793,1.577,1.156,3.244,1.143,4.986c-0.014,1.807-0.104,3.613-0.179,5.419c-0.056,1.362-0.14,2.723-0.212,4.088
			c0.739,0.059,0.838-0.421,1.014-0.775c1.07-2.159,2.081-4.347,3.193-6.483c1.239-2.38,2.895-4.48,4.623-6.521
			c1.357-1.602,3.035-2.789,4.873-3.773c1.897-1.016,3.926-1.24,6.02-0.953c2.182,0.3,3.767,1.605,5.118,3.23
			c0.544,0.655,0.998,1.386,1.569,2.189c0.81-0.137,1.323-0.752,1.912-1.189c2.999-2.226,6.273-3.914,9.797-5.137
			c1.374-0.477,2.672-0.525,3.947,0.327c0.991,0.662,1.691,1.52,1.796,2.696c0.107,1.193,0.122,2.41,0.02,3.603
			c-0.419,4.889-0.935,9.77-1.336,14.661c-0.161,1.971-0.14,3.958-0.161,5.938c-0.014,1.291,0.052,2.582,0.76,3.936
			c0.454-0.264,0.963-0.41,1.243-0.747c1.711-2.056,3.328-4.184,4.223-6.751c1.048-3.004,2.113-6.003,3.102-9.027
			c1.096-3.353,2.095-6.738,3.181-10.094c0.29-0.895,0.69-1.768,1.148-2.59c0.227-0.408,0.701-0.679,1.169-1.108
			c0.329,0.459,0.683,0.76,0.78,1.128c0.218,0.828,0.371,1.684,0.439,2.537c0.36,4.548,0.612,9.106,1.049,13.646
			c0.305,3.166,0.846,6.31,1.296,9.462c0.021,0.146,0.186,0.272,0.367,0.522c0.261-0.113,0.58-0.193,0.833-0.368
			c3.971-2.763,7.679-5.842,11-9.363c2.911-3.086,5.325-6.539,7.18-10.36c2.675-5.51,3.017-11.233,1.432-17.104
			c-0.387-1.433-1.057-2.744-2.075-3.827c-1.788-1.904-3.89-2.832-6.498-1.801c-1.038,0.41-2.044,0.899-3.075,1.325
			c-0.6,0.248-1.142,0.773-1.863,0.524c-0.045-0.132-0.115-0.235-0.089-0.276c3.006-4.77,8.885-4.49,11.67-2.136
			c2.221,1.877,3.374,4.294,4.002,7.046c1.755,7.688-0.007,14.65-4.247,21.148c-3.725,5.709-8.515,10.352-13.989,14.342
			c-1.456,1.061-2.911,2.124-4.404,3.213c0.057,1.107,0.08,2.137,0.169,3.161c0.216,2.487,0.516,4.967,0.687,7.457
			c0.525,7.657-0.392,15.147-3.023,22.363c-1.858,5.093-5.193,9.069-9.829,11.928c-3.198,1.972-6.584,2.424-10.156,1.264
			c-0.727-0.236-1.468-0.557-2.078-1.006c-4.057-2.985-5.977-6.951-5.521-12.044c0.664-7.427,4.005-13.623,8.718-19.19
			c2.799-3.306,6.052-6.117,9.648-8.533c1.781-1.197,3.547-2.416,5.346-3.644c-0.053-4.024-0.248-7.984-0.117-11.932
			c0.127-3.818,0.589-7.624,0.581-11.515c-0.231,0.526-0.5,1.039-0.687,1.58c-1.38,3.984-2.714,7.984-4.123,11.958
			c-1.039,2.932-2.393,5.721-4.255,8.23c-0.612,0.825-1.29,1.619-2.033,2.327c-2.858,2.721-6.59,1.993-8.255-1.574
			c-0.63-1.35-0.903-2.759-0.884-4.257c0.066-5.187,0.68-10.299,1.846-15.355c0.599-2.598,1.071-5.226,1.552-7.85
			c0.101-0.548-0.007-1.135-0.019-1.713c-2.77,0.204-7.376,2.665-11.464,6.077c0.06,0.418,0.126,0.913,0.201,1.406
			c0.392,2.579,0.335,5.143-0.155,7.708c-0.551,2.885-1.419,5.667-2.489,8.402c-1.571,4.014-4.044,7.388-7.17,10.298
			c-0.811,0.755-1.729,1.441-2.701,1.966c-2.156,1.165-4.306,0.921-6.381-0.314c-0.96-0.571-1.56-1.414-1.578-2.512
			c-0.017-1.018,0.072-2.064,0.3-3.055c0.819-3.572,2.489-6.769,4.501-9.803c3.162-4.768,6.999-8.945,11.2-12.803
			c0.378-0.347,0.758-0.692,1.09-0.995c0.435-4.198-3.652-6.595-7.28-5.777c-2.443,0.551-4.419,1.903-6.083,3.702
			c-2.166,2.343-4.23,4.798-5.771,7.597c-1.7,3.088-3.225,6.275-4.74,9.461c-0.396,0.832-0.572,1.806-0.672,2.734
			c-0.34,3.167-0.588,6.343-0.897,9.513c-0.142,1.456-0.367,2.905-0.516,4.36c-0.526,5.137-0.99,10.282-1.573,15.413
			c-0.213,1.873-0.611,3.738-1.089,5.564c-0.255,0.974-0.769,1.919-1.335,2.764c-0.649,0.97-1.802,1.108-2.732,0.421
			c-0.852-0.629-1.508-1.418-1.463-2.58c0.01-0.258-0.017-0.518,0.004-0.775c0.443-5.403,0.578-10.821,1.27-16.216
			c0.976-7.606,2.507-15.113,3.678-22.681c0.738-4.772,1.188-9.572,0.927-14.412c-0.028-0.516-0.047-1.034-0.118-1.545
			c-0.109-0.792-0.784-1.121-1.537-0.758c-0.308,0.149-0.615,0.32-0.882,0.533c-2.623,2.092-5.242,4.19-7.852,6.3
			c-0.69,0.558-1.143,1.222-1.13,2.201c0.061,4.643-1.293,9.007-2.775,13.329c-1.402,4.087-3.166,8.007-5.793,11.482
			c-1.563,2.068-3.284,3.978-5.339,5.585c-1.139,0.89-2.426,1.28-3.816,1.412c-1.332,0.126-2.326-0.434-3.002-1.59
			c-0.684-1.168-0.931-2.455-0.661-3.738c0.371-1.759,0.764-3.55,1.458-5.196c1.105-2.619,2.649-5.013,4.368-7.294
			c3.532-4.686,7.38-9.094,11.515-13.251c0.59-0.593,0.881-1.197,0.901-2.034c0.047-2.009-0.27-3.954-0.946-5.829
			c-1.194-3.314-4.13-4.457-7.281-2.848c-0.683,0.349-1.313,0.821-1.915,1.303c-3.299,2.64-5.604,6.041-7.376,9.826
			c-0.286,0.612-0.417,1.312-0.533,1.986c-0.789,4.581-1.565,9.163-2.326,13.749c-0.831,5.01-1.672,10.018-2.451,15.036
			c-0.727,4.677-1.323,9.374-2.086,14.045c-0.402,2.46-1.031,4.883-1.57,7.321c-0.074,0.334-0.199,0.658-0.324,0.978
			c-0.722,1.852-2.272,2.316-3.896,1.157c-0.518-0.369-0.831-0.886-0.814-1.534c0.018-0.686,0.039-1.379,0.152-2.054
			c1.204-7.215,2.388-14.434,3.654-21.639c1.191-6.78,2.581-13.527,3.686-20.32c1.009-6.199,1.775-12.438,2.594-18.666
			c0.143-1.086,0.02-2.208,0.02-3.31c-0.574-0.236-0.777,0.194-1.008,0.533c-2.041,3.001-3.566,6.283-5.192,9.512
			c-2.982,5.919-5.94,11.852-9.025,17.718c-0.995,1.892-2.32,3.618-3.564,5.371c-0.827,1.164-1.881,2.083-3.475,1.709
			c-1.479-0.347-1.909-1.64-2.324-2.862c-0.737-2.172-0.667-4.4-0.369-6.645c0.671-5.045,1.732-10.004,3.153-14.889
			c0.192-0.66,0.354-1.33,0.517-1.998C225.505,155.83,225.435,155.742,225.324,155.449z M342.292,179.665
			c-0.534,0.14-0.805,0.149-1.006,0.272c-5.164,3.173-9.975,6.781-13.78,11.562c-3.134,3.938-5.731,8.195-6.908,13.153
			c-0.791,3.332-0.719,6.619,0.768,9.836c1.365,2.954,5.155,4.542,8.001,3.867c1.406-0.333,2.762-0.951,4.081-1.568
			c1.428-0.667,2.539-1.736,3.377-3.099c2.694-4.383,4.632-9.069,5.122-14.205c0.572-6,0.675-12.031,0.526-18.061
			C342.461,180.921,342.372,180.42,342.292,179.665z M206.562,173.67c0.18,1.417,0.295,2.61,0.498,3.788
			c0.085,0.494,0.321,0.973,0.55,1.428c0.314,0.623,0.922,0.772,1.512,0.378c0.353-0.235,0.707-0.502,0.976-0.825
			c0.985-1.184,2.026-2.338,2.882-3.612c3.116-4.638,5.805-9.527,8.28-14.533c1.712-3.463,3.343-6.959,4.695-10.585
			c0.386-1.035,0.207-1.836-0.417-2.624c-0.996-1.258-2.274-1.793-3.869-1.397c-1.448,0.359-2.737,1.064-3.802,2.082
			c-1.051,1.004-2.049,2.081-2.952,3.22c-3.751,4.731-6.099,10.126-7.3,16.017C207.156,169.269,206.888,171.572,206.562,173.67z
			 M295.696,180.499c0.297,0,0.582,0.078,0.796-0.012c2.387-1.004,4.611-2.248,6.444-4.141c3.857-3.982,6.267-8.779,7.845-14.008
			c0.489-1.619,0.517-3.38,0.708-5.081c0.042-0.372,0.161-0.872-0.364-1.079c-0.103,0.013-0.196-0.001-0.26,0.037
			c-0.22,0.13-0.449,0.254-0.639,0.421c-4.545,3.996-8.381,8.591-11.529,13.756c-1.347,2.21-2.3,4.595-2.98,7.093
			C295.445,178.486,295.245,179.472,295.696,180.499z M267.559,162.279c-0.535,0.432-0.891,0.65-1.16,0.947
			c-2.258,2.487-4.595,4.911-6.721,7.507c-2.454,2.996-4.762,6.117-6.469,9.63c-0.686,1.412-1.183,2.868-1.186,4.451
			c-0.001,0.507,0.043,1.041,0.203,1.517c0.427,1.269,1.533,1.742,2.663,1.024c1.006-0.64,1.962-1.416,2.782-2.282
			c2.325-2.453,4.226-5.218,5.626-8.305c1.891-4.17,3.264-8.513,4.251-12.979C267.633,163.406,267.559,162.987,267.559,162.279z"/>
		<path d="M292.648,307.941c0.423-0.912,0.714-1.508,0.978-2.116c0.378-0.868,0.684-1.772,1.118-2.609
			c0.411-0.793,1.353-1.172,2.199-1.015c0.789,0.147,1.123,0.742,1.339,1.421c0.43,1.352,0.319,2.734,0.093,4.092
			c-0.382,2.29-0.831,4.57-1.275,6.85c-1.432,7.36-2.493,14.764-2.724,22.272c-0.074,2.409-0.231,4.814-0.356,7.221
			c-0.158,3.034,0.129,6.032,0.91,8.96c0.328,1.23,0.873,2.419,1.448,3.562c0.409,0.812,1.154,1.072,1.98,0.724
			c0.861-0.362,1.711-0.82,2.45-1.388c2.203-1.692,3.946-3.841,5.631-6.021c1.263-1.634,2.402-3.363,3.601-5.046
			c4.449-6.251,7.323-13.228,9.406-20.558c0.374-1.317,0.524-2.7,0.751-4.056c0.055-0.327,0.008-0.671,0.008-1.108
			c-0.813-0.378-1.601-0.698-2.345-1.099c-2.07-1.116-4.062-2.356-4.913-4.716c-0.99-2.745-0.798-5.425,0.849-7.877
			c0.411-0.612,1.091-1.116,1.754-1.47c1.629-0.87,3.553-0.467,4.595,1.045c0.673,0.977,1.181,2.106,1.565,3.234
			c0.67,1.968,0.923,4.018,0.828,6.109c-0.046,1.019,0.004,2.042,0.011,3.177c1.059,0.256,1.97,0.47,2.879,0.697
			c2.337,0.584,4.67,1.18,7.008,1.76c1.897,0.47,3.367,1.61,4.844,2.837c3.129,2.599,3.97,5.772,3.147,9.696
			c-1.113,5.304-2.06,10.648-2.901,16.002c-0.396,2.524-0.92,5.084-0.502,7.871c0.548-0.107,1.098-0.066,1.45-0.31
			c1.572-1.092,2.812-2.522,3.883-4.103c1.755-2.592,2.893-5.461,3.883-8.412c0.627-1.871,1.398-3.695,2.145-5.524
			c0.157-0.384,0.466-0.715,0.744-1.037c0.24-0.277,0.955-0.175,1.134,0.165c0.157,0.297,0.335,0.629,0.34,0.949
			c0.008,0.508-0.053,1.038-0.199,1.525c-0.865,2.883-1.645,5.8-2.68,8.622c-1.347,3.673-3.306,7.009-6.317,9.609
			c-0.778,0.671-1.626,1.273-2.497,1.82c-1.035,0.65-2.206,0.951-3.427,1.042c-3.318,0.249-5.894-1.788-6.314-5.093
			c-0.129-1.015-0.118-2.074,0.004-3.091c0.379-3.161,0.882-6.292,1.805-9.364c1.611-5.359,2.776-10.833,3.739-16.346
			c0.059-0.339,0.104-0.683,0.119-1.026c0.074-1.728-0.573-2.819-2.216-3.365c-1.876-0.623-3.792-1.133-5.707-1.63
			c-1.403-0.364-2.831-0.626-4.366-0.96c-0.152,0.589-0.331,1.068-0.394,1.563c-0.472,3.71-1.817,7.158-3.099,10.633
			c-3.084,8.358-7.946,15.623-13.711,22.321c-1.169,1.359-2.536,2.592-3.975,3.664c-1.816,1.352-3.878,2.179-6.243,2.099
			c-2.038-0.07-3.681-0.834-4.897-2.448c-1.633-2.168-2.717-4.568-3.036-7.301c-0.322-2.761-0.2-5.522,0.167-8.247
			c0.908-6.737,1.942-13.458,2.965-20.18c0.193-1.272,0.574-2.515,0.848-3.775c0.066-0.302,0.052-0.621-0.19-1.015
			c-0.394,0.748-0.811,1.485-1.177,2.246c-2.842,5.901-5.945,11.658-9.501,17.161c-1.354,2.095-2.793,4.141-4.271,6.15
			c-1.54,2.093-3.52,3.751-5.483,5.444c-4.061,3.503-11.418,0.514-11.664-5.05c-0.038-0.859-0.143-1.716-0.156-2.575
			c-0.093-6.464,1.62-12.415,5.07-17.879c0.438-0.694,1.022-1.337,1.224-2.361c-0.842,0.075-1.168,0.593-1.519,1.004
			c-2.962,3.47-5.927,6.94-8.853,10.441c-2.872,3.435-5.677,6.926-8.554,10.357c-1.833,2.185-3.94,4.094-6.239,5.784
			c-2.13,1.566-4.534,2.405-7.137,2.793c-2.678,0.398-4.961-0.393-6.87-2.213c-2.281-2.174-4.017-4.744-4.811-7.822
			c-1.426-5.529-2.256-11.13-1.686-16.867c0.068-0.684,0.078-1.375,0.094-2.064c0.004-0.165-0.076-0.333-0.118-0.5
			c-0.596-0.561-1.309-0.278-1.971-0.244c-3.937,0.2-7.721-0.444-11.337-2.017c-1.014-0.441-2.065-0.854-2.767-1.817
			c0.56-0.687,0.958-0.025,1.308,0.133c4.509,2.042,9.198,2.776,14.103,2.059c0.331-0.048,0.652-0.163,1.103-0.279
			c0.266-1.073,0.524-2.15,0.801-3.221c1.234-4.764,2.648-9.467,5.443-13.595c1.106-1.633,2.303-3.229,3.637-4.677
			c2.139-2.322,4.879-3.087,7.994-2.64c1.306,0.188,2.232,0.844,2.834,1.985c0.527,0.998,0.875,2.044,0.908,3.195
			c0.124,4.414-1.136,8.312-4.195,11.575c-2.811,2.998-6.189,5.184-9.85,6.976c-0.463,0.227-0.939,0.426-1.57,0.71
			c-0.144,0.664-0.369,1.401-0.456,2.153c-0.696,6.041-0.393,12.042,0.93,17.972c0.295,1.323,0.853,2.622,1.488,3.828
			c1.897,3.603,5.805,4.649,9.294,3.572c1.933-0.597,3.649-1.581,5.022-3.056c2.111-2.267,4.203-4.556,6.201-6.922
			c4.665-5.526,8.921-11.395,13.91-16.649c1.838-1.935,3.693-3.862,5.653-5.671c1.45-1.339,2.992-2.619,4.651-3.68
			c2.677-1.712,5.166-3.73,8.122-5.005c1.935-0.834,3.919-1.227,6.017-1.242c2.105-0.016,3.881,0.647,5.291,2.223
			C292.121,307.146,292.296,307.448,292.648,307.941z M266.738,347.47c0.446-0.109,0.834-0.107,1.098-0.286
			c1.131-0.772,2.302-1.513,3.32-2.42c3.058-2.724,5.208-6.172,7.412-9.568c4.608-7.099,8.237-14.718,11.844-22.346
			c0.4-0.846,0.596-1.79,0.881-2.69c0.26-0.823-0.01-1.511-0.531-2.151c-0.859-1.054-1.92-1.35-3.225-0.99
			c-3.419,0.942-6.338,2.734-8.647,5.387c-2.6,2.988-4.98,6.151-6.917,9.635c-2.147,3.862-3.729,7.945-4.935,12.175
			c-0.541,1.897-0.961,3.839-1.276,5.787c-0.331,2.048-0.346,4.125,0.272,6.143C266.175,346.608,266.492,347.017,266.738,347.47z
			 M226.297,316.899c0.228,0,0.426,0.059,0.56-0.009c3.409-1.698,6.514-3.824,9.115-6.626c2.333-2.513,3.365-5.551,3.369-8.939
			c0.001-0.839-0.127-1.733-0.432-2.508c-0.706-1.792-2.02-2.164-3.704-1.219c-1.561,0.876-2.552,2.274-3.458,3.74
			c-2.645,4.28-4.374,8.926-5.434,13.828C226.193,315.724,226.297,316.33,226.297,316.899z M320.167,316.489
			c0.583-3.169,0.188-6.464-1.172-9.062c-0.345-0.659-0.884-1.25-1.441-1.755c-0.572-0.519-1.281-0.415-1.858,0.1
			c-1.466,1.306-2.242,4.61-1.465,6.443c0.439,1.035,1.066,1.953,2.045,2.578C317.483,315.564,318.605,316.534,320.167,316.489z"/>
		<path d="M156.889,160.762c0.264,7.557,1.191,15.074,1.717,22.639c0.826,0.079,0.78-0.572,0.881-0.98
			c1.261-5.113,2.991-10.063,5.184-14.847c2.12-4.622,4.359-9.176,7.622-13.143c2.094-2.546,4.443-4.798,7.18-6.64
			c1.509-1.016,3.12-1.812,4.851-2.38c4.237-1.389,7.934,0.119,9.966,4.082c1.249,2.434,1.764,5.031,1.621,7.744
			c-0.341,6.449-0.855,12.873-2.014,19.247c-0.847,4.655-1.358,9.373-1.42,14.117c-0.019,1.459,0.08,2.928,0.239,4.38
			c0.151,1.38,0.633,2.659,1.46,3.816c1.187,1.661,2.7,2.325,4.881,0.802c1.051-0.734,2.003-1.622,2.939-2.504
			c0.813-0.766,1.531-1.633,2.311-2.436c0.286-0.294,0.628-0.533,1.215-1.023c0,0.712,0.131,1.154-0.021,1.451
			c-1.021,1.986-2.012,3.999-3.19,5.892c-1.257,2.02-3.272,2.998-5.574,3.377c-3.138,0.517-6.319-1.168-7.655-4.055
			c-0.656-1.419-1.002-2.923-1.087-4.49c-0.29-5.341-0.119-10.671,0.308-15.999c0.358-4.464,0.941-8.894,1.593-13.326
			c0.537-3.651,0.572-7.374,0.845-11.065c0.18-2.434-0.693-4.553-1.886-6.594c-0.532-0.91-1.229-1.335-2.328-1.237
			c-1.849,0.165-3.574,0.704-5.063,1.764c-1.747,1.245-3.477,2.549-5.032,4.022c-2.384,2.258-4.34,4.891-5.97,7.751
			c-4.071,7.145-7.111,14.713-9.24,22.649c-0.512,1.911-0.902,3.854-1.394,5.77c-0.329,1.283-0.289,2.554-0.087,3.842
			c0.214,1.36,0.46,2.719,0.591,4.088c0.151,1.565-0.576,2.66-2.005,3.245c-0.579,0.237-1.274,0.109-1.604-0.442
			c-0.345-0.578-0.67-1.22-0.788-1.873c-0.533-2.963-1.092-5.927-1.451-8.914c-0.741-6.152-1.368-12.318-2.023-18.48
			c-0.127-1.198-0.149-2.406-0.257-3.607c-0.035-0.391-0.191-0.772-0.312-1.236c-0.38,0.193-0.646,0.259-0.816,0.425
			c-3.822,3.728-7.712,7.398-10.82,11.779c-3.319,4.677-6.061,9.613-6.691,15.461c-0.011,0.105-0.232,0.187-0.357,0.281
			c-0.461-0.06-0.465-0.458-0.522-0.77c-0.286-1.559-0.082-3.088,0.354-4.593c1.183-4.082,2.927-7.9,5.352-11.4
			c2.166-3.126,4.688-5.947,7.37-8.633c1.643-1.645,3.242-3.336,4.932-4.932c0.891-0.841,1.189-1.749,1.151-2.965
			c-0.271-8.524-0.096-17.046,0.117-25.569c0.209-8.356,2.805-15.866,7.584-22.669c1.297-1.846,2.783-3.506,4.711-4.723
			c3.181-2.008,7.055-1.494,9.597,1.287c1.364,1.493,2.219,3.257,2.727,5.207c0.863,3.315,0.759,6.663,0.294,10.006
			c-0.644,4.635-2.089,9.049-3.955,13.324c-3.2,7.334-7.763,13.778-13.012,19.765C158.945,158.55,157.941,159.611,156.889,160.762z
			 M156.97,157.254c1.061-1.17,1.75-1.817,2.307-2.563c2.418-3.236,4.954-6.398,7.156-9.776c4.032-6.184,6.807-12.923,7.942-20.257
			c0.515-3.326,0.616-6.661-0.222-9.99c-0.628-2.493-2.266-3.983-4.473-4.977c-0.426-0.192-1.02-0.189-1.486-0.073
			c-0.57,0.142-1.114,0.453-1.62,0.77c-2.353,1.47-3.843,3.64-4.887,6.155c-3.109,7.487-4.326,15.372-4.715,23.394
			c-0.238,4.894-0.176,9.802-0.227,14.704C156.739,155.296,156.854,155.954,156.97,157.254z"/>
		<path d="M391.514,241.609c-0.239-0.056-0.594-0.082-0.89-0.229c-0.183-0.091-0.323-0.351-0.388-0.564
			c-0.03-0.1,0.134-0.339,0.261-0.391c0.475-0.193,0.959-0.39,1.459-0.485c2.365-0.452,4.727-0.932,7.107-1.292
			c6.296-0.951,12.6-1.848,18.902-2.762c4.343-0.63,8.677-1.335,13.033-1.855c4.699-0.56,9.418-0.959,14.132-1.388
			c0.752-0.069,1.544-0.014,2.276,0.161c0.29,0.069,0.639,0.621,0.643,0.956c0.004,0.353-0.293,0.86-0.605,1.028
			c-0.428,0.23-0.991,0.233-1.501,0.283c-3.085,0.3-6.171,0.583-9.256,0.876c-7.371,0.699-14.717,1.574-22.006,2.916
			c-2.791,0.514-5.618,0.844-8.439,1.176c-4.527,0.533-9.063,1-13.595,1.491C392.305,241.568,391.96,241.579,391.514,241.609z"/>
		<path d="M234.178,112.273c-0.177-0.162-0.489-0.308-0.519-0.498c-0.242-1.526-0.495-3.056-0.615-4.595
			c-0.107-1.371-0.066-2.755-0.061-4.132c0.02-5.604-0.56-11.176-0.834-16.764c-0.198-4.042-0.226-8.091-0.346-12.137
			c-0.063-2.151-0.261-4.303-0.219-6.451c0.066-3.355,0.275-6.708,0.445-10.06c0.021-0.422,0.073-0.901,0.29-1.238
			c0.202-0.313,0.624-0.62,0.983-0.666c0.527-0.066,1.035,0.237,1.156,0.811c0.104,0.495,0.109,1.024,0.076,1.533
			c-0.111,1.718-0.34,3.432-0.372,5.151c-0.059,3.098-0.043,6.199,0.006,9.298c0.047,3.012,0.158,6.024,0.272,9.035
			c0.159,4.216,0.427,8.429,0.503,12.646c0.096,5.338,0.048,10.678,0.057,16.018C235.001,110.991,235.028,111.781,234.178,112.273z"
			/>
		<path d="M240.485,401.463c0.252,0.51,0.62,0.995,0.735,1.535c0.481,2.268,0.937,4.545,1.31,6.833
			c0.719,4.411,1.455,8.822,2.04,13.252c1.118,8.451,3.294,16.701,4.683,25.099c0.209,1.26,0.687,2.476,1.034,3.713
			c0.197,0.703-0.183,1.488-0.799,1.674c-0.546,0.164-1.255-0.081-1.506-0.7c-0.417-1.029-0.813-2.088-1.033-3.172
			c-0.717-3.538-1.273-7.11-2.032-10.638c-1.303-6.055-2.228-12.173-3.277-18.272c-0.891-5.181-1.354-10.399-2.025-15.598
			c-0.088-0.681-0.204-1.375-0.158-2.053c0.038-0.554,0.298-1.093,0.459-1.639C240.106,401.487,240.295,401.475,240.485,401.463z"/>
		<path d="M391.307,234.967c0.337-0.712,0.412-1.164,0.678-1.377c0.802-0.641,1.653-1.23,2.53-1.766
			c3.53-2.158,7.257-3.945,11.062-5.545c3.406-1.432,6.888-2.684,10.345-3.991c4.583-1.733,9.153-3.503,13.77-5.142
			c3.967-1.408,7.989-2.661,11.994-3.962c0.565-0.184,1.164-0.297,1.756-0.357c0.567-0.057,1,0.254,1.203,0.784
			c0.197,0.514-0.178,1.225-0.758,1.47c-0.314,0.132-0.656,0.198-0.986,0.293c-6.947,1.997-13.713,4.514-20.472,7.063
			c-4.181,1.577-8.471,2.871-12.628,4.506c-4.236,1.666-8.375,3.578-12.542,5.416c-1.494,0.659-2.94,1.423-4.419,2.117
			C392.481,234.643,392.08,234.723,391.307,234.967z"/>
		<path d="M238.36,109.29c-0.439-1.156-0.211-2.269-0.067-3.361c0.638-4.857,1.414-9.695,2.596-14.451
			c2.321-9.333,4.707-18.649,7.086-27.967c0.318-1.247,0.716-2.477,1.139-3.693c0.234-0.672,0.867-0.972,1.413-0.799
			c0.737,0.233,1.146,0.839,0.943,1.592c-0.425,1.574-0.965,3.118-1.371,4.697c-1.433,5.572-2.708,11.187-4.268,16.723
			c-2.238,7.945-3.915,16.014-5.69,24.063c-0.185,0.838-0.388,1.674-0.636,2.495C239.382,108.99,239.151,109.37,238.36,109.29z"/>
		<path d="M108.872,268.982c-0.913,0-1.403,0.081-1.857-0.013c-3.114-0.649-6.227-1.306-9.325-2.022
			c-1.757-0.406-3.516-0.841-5.224-1.414c-4.653-1.562-9.375-2.849-14.167-3.904c-1.93-0.425-3.846-0.93-5.741-1.491
			c-4.704-1.394-9.469-2.521-14.282-3.459c-0.753-0.147-1.52-0.342-2.198-0.681c-0.27-0.135-0.427-0.716-0.436-1.098
			c-0.011-0.469,0.391-0.791,0.853-0.795c0.595-0.006,1.202,0.058,1.784,0.183c4.707,1.009,9.408,2.027,14.035,3.39
			c3.791,1.117,7.66,1.972,11.484,2.98c1.994,0.526,4.002,1.032,5.941,1.723c4.709,1.677,9.575,2.785,14.372,4.143
			c1.154,0.327,2.289,0.747,3.392,1.219C107.915,267.919,108.211,268.368,108.872,268.982z"/>
		<path d="M232.231,400.995c0.534,1.94,0.281,3.658,0.047,5.353c-1.282,9.297-2.232,18.622-2.64,28.001
			c-0.161,3.696-0.472,7.385-0.65,11.081c-0.057,1.194,0.096,2.398,0.147,3.598c0.029,0.682-0.319,1.202-0.912,1.383
			c-0.565,0.173-1.229-0.13-1.446-0.767c-0.191-0.561-0.334-1.162-0.354-1.751c-0.039-1.117-0.011-2.239,0.053-3.355
			c0.213-3.694,0.471-7.385,0.684-11.079c0.491-8.51,1.274-16.989,2.734-25.393c0.338-1.947,0.832-3.867,1.279-5.794
			C231.282,401.802,231.402,401.287,232.231,400.995z"/>
		<path d="M106.5,274.66c-0.742,0.115-1.132,0.242-1.515,0.225c-2.664-0.119-5.326-0.31-7.992-0.397
			c-3.611-0.118-7.225-0.241-10.837-0.224c-4.649,0.022-9.282-0.037-13.928-0.39c-5.746-0.437-11.521-0.502-17.282-0.751
			c-0.765-0.033-1.549-0.12-2.274-0.345c-0.31-0.096-0.607-0.579-0.702-0.941c-0.125-0.477,0.364-1.049,0.886-1.066
			c1.115-0.037,2.233-0.026,3.348,0.022c2.836,0.123,5.672,0.263,8.506,0.424c3.093,0.177,6.195,0.279,9.273,0.608
			c3.694,0.395,7.39,0.435,11.089,0.376c5.26-0.085,10.495,0.145,15.704,0.909c1.607,0.236,3.291-0.034,4.818,0.708
			C105.851,273.943,106.032,274.216,106.5,274.66z"/>
		<path d="M227.586,113.394c-1.027-0.855-1.189-1.613-1.345-2.367c-1.079-5.232-2.835-10.26-4.582-15.291
			c-0.282-0.811-0.546-1.63-0.781-2.456c-2.464-8.675-4.881-17.363-6.866-26.164c-0.132-0.583-0.194-1.186-0.233-1.783
			c-0.038-0.584,0.277-0.997,0.834-1.141c0.546-0.141,1.051,0.052,1.337,0.532c0.212,0.357,0.333,0.787,0.414,1.2
			c1.703,8.688,4.068,17.214,6.31,25.769c0.827,3.155,1.856,6.258,2.841,9.37c0.962,3.041,1.543,6.164,2.123,9.289
			C227.806,111.254,227.883,112.166,227.586,113.394z"/>
		<path d="M411.354,247.775c6.545,0.072,13.09,0.142,19.636,0.223c0.512,0.006,1.033,0.052,1.532,0.16
			c0.659,0.143,1.017,0.721,0.912,1.343c-0.098,0.583-0.458,0.916-1.028,0.979c-0.426,0.046-0.86,0.027-1.29,0.02
			c-5.769-0.098-11.539-0.203-17.308-0.299c-5.253-0.088-10.507-0.165-15.76-0.25c-1.636-0.027-3.278,0.01-4.907-0.12
			c-1.096-0.088-2.175-0.408-3.254-0.655c-0.112-0.026-0.262-0.282-0.24-0.403c0.039-0.22,0.162-0.57,0.307-0.601
			c0.664-0.143,1.346-0.257,2.023-0.268c6.459-0.106,12.919-0.189,19.378-0.278C411.354,247.675,411.354,247.725,411.354,247.775z"
			/>
		<path d="M113.411,261.697c-0.907,0.442-1.599,0.053-2.326-0.199c-3.517-1.221-6.708-3.034-9.799-5.099
			c-4.504-3.01-9.181-5.74-14.188-7.856c-2.215-0.936-4.445-1.836-6.66-2.774c-0.549-0.233-1.098-0.498-1.585-0.839
			c-0.474-0.332-0.559-0.867-0.29-1.377c0.263-0.499,0.721-0.741,1.286-0.57c0.491,0.149,0.965,0.36,1.439,0.561
			c2.214,0.939,4.419,1.899,6.639,2.823c5.184,2.157,9.954,5.059,14.592,8.18c2.64,1.776,5.23,3.612,8.129,4.966
			c0.771,0.361,1.476,0.878,2.172,1.377C113.07,261.069,113.205,261.406,113.411,261.697z"/>
		<path d="M227.087,400.049c0.7,0.299,0.677,0.781,0.592,1.17c-0.236,1.09-0.488,2.184-0.847,3.239
			c-3.099,9.12-6.223,18.233-9.338,27.347c-0.083,0.243-0.121,0.511-0.245,0.73c-0.265,0.469-0.64,0.841-1.234,0.705
			c-0.562-0.129-0.897-0.571-0.921-1.111c-0.021-0.499,0.077-1.027,0.234-1.505c0.509-1.552,1.058-3.091,1.612-4.628
			c2.214-6.15,4.412-12.306,6.669-18.44c0.801-2.178,1.734-4.308,2.651-6.44C226.438,400.701,226.825,400.378,227.087,400.049z"/>
		<path d="M247.14,400.248c0.381,0.414,0.889,0.767,1.121,1.253c0.962,2.017,1.981,4.025,2.717,6.128
			c1.307,3.734,2.445,7.527,3.609,11.31c0.584,1.897,1.195,3.774,2.198,5.499c0.086,0.149,0.174,0.299,0.242,0.456
			c0.349,0.813,0.18,1.49-0.436,1.779c-0.621,0.29-1.351,0.114-1.744-0.647c-0.787-1.523-1.597-3.06-2.141-4.677
			c-1.179-3.505-2.169-7.072-3.289-10.598c-0.624-1.966-1.36-3.896-2.029-5.848c-0.307-0.894-0.644-1.787-0.834-2.708
			c-0.113-0.546,0.034-1.145,0.064-1.721C246.792,400.399,246.966,400.323,247.14,400.248z"/>
		<path d="M103.019,283.458c-2.352,0.185-4.395,0.326-6.433,0.509c-3.075,0.277-6.147,0.584-9.22,0.878
			c-2.732,0.262-5.463,0.53-8.196,0.78c-0.423,0.039-0.877,0.078-1.271-0.038c-0.273-0.08-0.607-0.397-0.66-0.66
			c-0.055-0.271,0.124-0.674,0.334-0.891c0.217-0.225,0.581-0.366,0.903-0.423c0.929-0.164,1.864-0.316,2.804-0.387
			c5.557-0.424,11.114-0.841,16.674-1.217c1.108-0.075,2.231,0.005,3.342,0.079C101.978,282.134,102.598,282.378,103.019,283.458z"
			/>
		<path d="M255.167,91.796c-0.15,0.414-0.233,0.744-0.382,1.042c-2.458,4.927-4.884,9.872-7.898,14.497
			c-0.094,0.144-0.162,0.307-0.267,0.442c-0.462,0.591-0.823,1.354-1.726,1.33c-0.546-0.014-0.576-0.896-0.037-2.302
			c0.245-0.64,0.545-1.262,0.857-1.874c1.875-3.678,3.753-7.353,5.648-11.021c0.473-0.915,0.967-1.825,1.532-2.684
			c0.307-0.466,0.876-0.601,1.377-0.312C254.613,91.111,254.856,91.48,255.167,91.796z"/>
		<path d="M391.691,258.88c0.695-0.086,1.259-0.255,1.803-0.207c2.303,0.201,4.604,0.437,6.899,0.716
			c2.213,0.269,4.421,0.583,6.623,0.927c0.663,0.104,1.338,0.299,1.936,0.596c0.46,0.227,0.745,0.722,0.595,1.298
			c-0.151,0.582-0.619,0.79-1.164,0.826c-0.251,0.016-0.508-0.051-0.762-0.084c-4.683-0.6-9.321-1.448-13.905-2.578
			c-0.571-0.141-1.122-0.4-1.645-0.675C391.91,259.614,391.873,259.293,391.691,258.88z"/>
		<path d="M253.357,398.237c0.599,0.512,1.145,0.819,1.465,1.283c0.973,1.41,1.984,2.818,2.748,4.343
			c1.152,2.299,2.116,4.693,3.144,7.055c0.389,0.895,0.275,1.548-0.262,1.838c-0.676,0.365-1.466,0.13-1.948-0.71
			c-0.554-0.966-1.029-1.98-1.499-2.991c-1.192-2.568-2.37-5.143-3.535-7.723c-0.28-0.62-0.575-1.258-0.69-1.918
			C252.728,399.111,253.097,398.736,253.357,398.237z"/>
		<path d="M113.531,256.444c-1.099,0.091-1.778-0.256-2.412-0.697c-0.919-0.639-1.863-1.252-2.718-1.969
			c-2.31-1.937-4.585-3.915-6.859-5.895c-0.583-0.507-1.147-1.047-1.649-1.633c-0.357-0.417-0.404-0.945-0.032-1.419
			c0.309-0.395,0.93-0.487,1.398-0.185c0.359,0.231,0.699,0.499,1.018,0.784c3.213,2.866,6.424,5.735,9.627,8.613
			C112.589,254.66,113.412,255.197,113.531,256.444z"/>
		<path d="M220.816,399.541c-0.045,0.208-0.069,0.466-0.157,0.7c-0.274,0.723-0.511,1.47-0.87,2.15
			c-1.89,3.573-3.809,7.131-5.734,10.685c-0.201,0.37-0.459,0.757-0.792,0.991c-0.232,0.163-0.685,0.19-0.952,0.075
			c-0.268-0.115-0.59-0.475-0.6-0.74c-0.02-0.49,0.051-1.058,0.291-1.473c2.284-3.947,4.6-7.874,6.94-11.787
			c0.252-0.422,0.697-0.737,1.084-1.062c0.093-0.078,0.345-0.05,0.473,0.021C220.627,399.171,220.692,399.358,220.816,399.541z"/>
		<path d="M391.704,228.021c-0.1-0.184-0.31-0.399-0.303-0.606c0.008-0.229,0.172-0.492,0.343-0.669
			c0.415-0.428,0.838-0.862,1.319-1.209c3.188-2.303,6.387-4.591,9.596-6.865c0.411-0.292,0.879-0.595,1.356-0.671
			c0.328-0.052,0.797,0.199,1.057,0.461c0.304,0.306,0.35,0.791,0.046,1.177c-0.207,0.262-0.458,0.511-0.737,0.693
			c-3.582,2.331-7.17,4.652-10.763,6.965c-0.428,0.276-0.892,0.501-1.356,0.715C392.124,228.075,391.932,228.021,391.704,228.021z"
			/>
		<path d="M220.312,113.707c-0.693-0.647-1.012-0.905-1.284-1.206c-2.324-2.572-4.04-5.547-5.639-8.594
			c-0.533-1.015-0.395-1.7,0.269-2.005c0.565-0.26,1.045,0.026,1.565,0.961c0.208,0.375,0.392,0.764,0.57,1.155
			c1.031,2.27,2.147,4.489,3.572,6.549C219.878,111.311,220.442,112.094,220.312,113.707z"/>
		<path d="M104.135,290.534c0.143,0.693-0.436,0.876-0.852,1.097c-2.032,1.087-4.084,2.135-6.129,3.197
			c-0.832,0.432-1.658,0.878-2.498,1.294c-0.424,0.21-0.831,0.131-1.154-0.226c-0.354-0.392-0.395-1.055-0.007-1.4
			c0.439-0.392,0.921-0.775,1.449-1.021c2.089-0.969,4.191-1.913,6.314-2.806C102.535,290.134,102.556,290.184,104.135,290.534z"/>
		<path d="M125.265,421.147c0.049,0.126,0.11,0.247,0.135,0.375c0.005,0.027-0.125,0.117-0.185,0.111
			c-0.06-0.007-0.167-0.121-0.155-0.149C125.108,421.365,125.192,421.26,125.265,421.147z"/>
	</g>
	<g>
		<linearGradient id="SVGID_1_" gradientUnits="userSpaceOnUse" x1="295.8419" y1="368.4946" x2="435.8107" y2="368.4946">
			<stop  offset="0" style="stop-color:#8C540A"/>
			<stop  offset="1" style="stop-color:#F7CD54"/>
		</linearGradient>
		<path style="fill:url(#SVGID_1_);" d="M417.605,373.339c0.854,0.658,1.713,1.348,2.601,1.999c2.169,1.59,4.088,3.425,5.671,5.61
			c0.656,0.906,1.374,1.768,2.071,2.645c4.013,5.047,6.27,10.812,7.198,17.169c0.776,5.317,0.843,10.639,0.359,15.969
			c-0.171,1.878-0.534,3.754-0.983,5.588c-1.738,7.092-4.399,13.764-9.02,19.54c-5.281,6.599-11.649,11.678-19.752,14.403
			c-2.799,0.941-5.656,1.48-8.61,1.518c-5.185,0.066-10.333-0.276-15.374-1.566c-4.192-1.073-8.18-2.675-11.867-4.96
			c-3.496-2.168-6.206-5.19-8.686-8.397c-2.424-3.134-4.637-6.426-6.242-10.081c-0.125-0.286-0.365-0.522-0.663-0.937
			c-0.757,1.046-1.387,1.948-2.049,2.827c-2.371,3.143-5.281,5.651-8.808,7.424c-3.533,1.776-7.145,1.796-10.741,0.3
			c-2.667-1.11-4.903-2.832-6.593-5.229c-2.806-3.98-4.297-8.422-4.559-13.252c-0.131-2.401-0.117-4.826,0.062-7.223
			c0.25-3.345,0.782-6.668,1.071-10.011c0.349-4.036,0.49-8.058-0.61-12.051c-0.684-2.483-2.248-4.074-4.485-4.979
			c-2.465-0.998-5.05-1.073-7.572-0.09c-2.859,1.114-5.342,2.823-7.285,5.193c-1.306,1.592-2.519,3.286-3.573,5.054
			c-1.933,3.241-2.47,6.764-1.583,10.456c0.604,2.513,2.091,4.333,4.529,5.241c0.688,0.256,1.558,0.379,2.253,0.203
			c2.976-0.759,4.875-5.121,3.393-7.512c-0.45-0.727-0.843-1.489-1.25-2.242c-0.018-0.034,0.083-0.133,0.226-0.347
			c1.444,0.889,2.373,2.145,2.65,3.789c0.465,2.761-0.794,5.699-3.796,7.297c-1.432,0.762-3,0.583-4.488-0.129
			c-2.878-1.378-4.486-3.722-4.99-6.789c-0.481-2.931-0.374-5.869,0.896-8.618c2.128-4.607,5.013-8.616,9.345-11.445
			c2.854-1.864,5.926-2.646,9.334-2.222c4.034,0.501,7.023,3,8.079,6.92c0.539,2.003,0.78,4.039,0.833,6.122
			c0.101,3.982-0.393,7.909-0.88,11.839c-0.531,4.288-0.697,8.592-0.317,12.889c0.38,4.298,1.897,8.236,4.639,11.583
			c2.574,3.142,5.907,4.937,10.084,4.94c1.781,0.001,3.397-0.549,4.926-1.364c4.305-2.292,7.53-5.672,9.899-9.914
			c0.508-0.909,0.528-1.734,0.15-2.699c-1.072-2.737-1.74-5.587-2.072-8.507c-0.116-1.022-0.144-2.057-0.156-3.087
			c-0.003-0.28,0.197-0.563,0.4-1.099c0.812,1.037,0.509,2.032,0.726,2.889c0.232,0.916,0.342,1.862,0.542,2.787
			c0.2,0.924,0.424,1.845,0.679,2.756c0.242,0.866,0.346,1.809,1.159,2.582c1.192-1.762,1.318-3.661,1.201-5.512
			c-0.117-1.853-0.593-3.683-0.919-5.57c0.405-0.396,0.721-0.107,0.966,0.258c1.51,2.244,2.107,4.721,1.6,7.375
			c-0.338,1.769-0.796,3.53-1.387,5.23c-0.398,1.145-0.382,2.118,0.114,3.211c2.919,6.445,6.988,12.05,12.213,16.808
			c0.82,0.747,1.78,1.363,2.74,1.932c5.411,3.205,11.247,5.157,17.506,5.815c1.284,0.135,2.576,0.204,3.861,0.333
			c8.86,0.889,16.699-1.766,23.659-7.082c6.054-4.625,10.749-10.416,13.774-17.458c3.822-8.897,5.099-18.156,4.043-27.794
			c-0.484-4.413-1.407-8.659-3.29-12.677c-0.547-1.166-1.085-2.367-1.834-3.402c-1.867-2.578-3.757-5.153-5.82-7.574
			c-2.078-2.44-4.759-4.205-7.421-5.976c-1.973,0.45-3.875,1.003-5.815,1.3c-3.25,0.497-6.513,0.638-9.703-0.471
			c-1.57-0.546-2.966-1.375-4.184-2.497c-0.167-0.154-0.234-0.417-0.452-0.826c1.419,0.1,2.264,1.087,3.355,1.45
			c1.141,0.379,2.283,0.813,3.461,1.003c1.18,0.19,2.405,0.168,3.606,0.131c1.2-0.037,2.416-0.105,3.586-0.348
			c1.148-0.238,2.426-0.108,3.545-1.091c-0.613-0.389-1.133-0.838-1.736-1.083c-3.765-1.532-7.613-2.736-11.742-2.707
			c-0.257,0.002-0.558,0.042-0.76-0.074c-0.254-0.146-0.601-0.446-0.587-0.658c0.017-0.265,0.315-0.594,0.578-0.737
			c0.283-0.154,0.668-0.184,1.004-0.167c1.373,0.072,2.772,0.039,4.109,0.307c3.723,0.745,7.368,1.764,10.644,3.795
			c0.361,0.224,0.765,0.378,1.174,0.577c2.677-0.792,4.726-2.453,6.536-4.452c3.013-3.329,4.835-7.266,6.036-11.566
			c2.425-8.682,1.879-17.202-1.141-25.624c-0.909-2.535-2.235-4.825-3.987-6.89c-2.061-2.43-4.081-4.884-6.344-7.143
			c-3.357-3.353-7.306-5.723-11.672-7.451c-4.001-1.584-8.038-3.076-12.042-4.653c-1.761-0.693-3.492-1.467-5.213-2.256
			c-3.357-1.54-6.163-3.818-8.34-6.772c-2.243-3.043-3.05-6.446-2.237-10.252c0.53-2.481,4.234-5.667,7.017-5.684
			c0.831-0.005,1.723,0.182,2.486,0.514c2.139,0.931,3.625,3.574,3.451,5.897c-0.168,2.242-1.601,3.682-3.794,3.783
			c-0.436,0.02-0.897-0.058-0.964-0.612c-0.06-0.497,0.275-0.778,0.692-0.956c0.156-0.067,0.339-0.071,0.497-0.135
			c1.374-0.558,1.755-1.099,1.76-2.48c0.013-3.356-3.221-5.288-6.132-3.659c-2.38,1.332-3.671,3.254-3.545,6.097
			c0.115,2.591,0.847,4.906,2.515,6.896c2.188,2.611,4.753,4.751,7.929,6.058c4.297,1.768,8.603,3.516,12.931,5.208
			c2.887,1.129,5.782,2.211,8.526,3.684c4.573,2.454,8.119,6.059,11.443,9.932c0.673,0.784,1.261,1.642,1.953,2.407
			c2.841,3.139,4.54,6.849,5.691,10.883c2.534,8.883,2.416,17.686-0.692,26.401c-2.024,5.674-5.257,10.437-10.611,13.518
			c-0.145,0.083-0.264,0.216-0.384,0.338C417.767,373.033,417.735,373.119,417.605,373.339z"/>
		
			<linearGradient id="SVGID_00000048482545062834660510000011418754512385288096_" gradientUnits="userSpaceOnUse" x1="283.396" y1="122.7442" x2="435.7734" y2="122.7442">
			<stop  offset="0" style="stop-color:#8C540A"/>
			<stop  offset="1" style="stop-color:#F7CD54"/>
		</linearGradient>
		<path style="fill:url(#SVGID_00000048482545062834660510000011418754512385288096_);" d="M325.804,95.631
			c-0.046-2.621-0.082-4.819-0.124-7.017c-0.043-2.26-0.509-4.448-1.227-6.576c-0.708-2.098-1.394-4.217-2.675-6.155
			c-0.897,1.605-1.339,3.743-1.449,6.695c-0.09,2.419,0.024,4.819,0.56,7.191c0.522,2.308,1.64,4.32,3.085,6.081
			c-0.282,0.604-0.608,0.378-0.868,0.209c-1.444-0.935-2.203-2.383-2.834-3.906c-1.003-2.421-1.36-4.975-1.427-7.57
			c-0.083-3.207,0.391-6.367,1.195-9.453c0.348-1.336,0.157-2.29-0.753-3.283c-2.952-3.219-6.163-6.027-10.557-7.077
			c-5.456-1.303-10.239-0.034-14.277,3.857c-1.885,1.817-3.215,4.013-4.14,6.476c-1.912,5.093-2.074,10.28-0.725,15.489
			c0.862,3.327,2.024,6.575,3.03,9.865c0.73,2.385,1.507,4.761,2.111,7.178c0.552,2.206,0.471,4.446-0.3,6.618
			c-0.704,1.982-2.03,3.408-4.02,4.089c-0.697,0.239-1.554,0.328-2.261,0.16c-2.297-0.547-3.709-2.222-4.435-4.322
			c-0.722-2.09-0.187-4.102,1.342-5.747c0.706-0.759,1.553-1.334,3.035-0.977c-0.67,0.411-1.103,0.644-1.501,0.926
			c-2.819,1.994-2.901,6.361,0.884,8.545c1.003,0.579,2.154,0.509,3.218-0.101c1.172-0.672,2.031-1.619,2.433-2.9
			c0.491-1.561,0.919-3.155,0.51-4.814c-0.494-2.003-0.943-4.021-1.55-5.991c-0.961-3.124-2.086-6.198-3.049-9.322
			c-0.942-3.052-1.522-6.179-1.633-9.387c-0.13-3.771,0.639-7.377,2.086-10.821c2.831-6.734,9.229-10.929,16.225-10.693
			c3.448,0.116,6.603,1.225,9.382,3.251c1.455,1.061,2.766,2.322,4.124,3.513c0.51,0.447,0.969,0.952,1.503,1.482
			c0.24-0.207,0.508-0.325,0.578-0.516c3.748-10.125,11.116-16.835,20.528-21.504c6.988-3.467,14.385-5.639,22.173-6.539
			c6.516-0.753,12.915-0.435,19.141,1.625c5.72,1.892,11.331,4.091,16.734,6.79c4.632,2.315,9.074,4.907,13.2,8.068
			c10.162,7.783,16.012,18.11,17.925,30.633c1.699,11.118,0.48,22.024-3.827,32.435c-1.67,4.037-4.041,7.784-6.102,11.658
			c-0.279,0.525-0.615,1.021-1.025,1.695c0.876,0.385,1.625,0.743,2.395,1.047c4.415,1.741,7.677,4.836,10.275,8.715
			c3.002,4.484,3.556,9.419,2.669,14.613c-0.13,0.763-0.319,1.516-0.475,2.275c-1.115,5.426-4.208,9.566-8.529,12.833
			c-4.281,3.236-9.005,5.722-13.969,7.742c-3.597,1.464-7.087,3.118-10.338,5.26c-2.17,1.429-4.168,3.043-5.835,5.054
			c-1.025,1.236-1.648,2.652-1.768,4.221c-0.063,0.822,0.074,1.745,0.408,2.495c0.818,1.839,3.275,2.374,4.779,1.057
			c0.627-0.549,1.128-1.3,1.521-2.046c0.654-1.245,0.689-2.473-0.521-3.496c-0.238-0.201-0.366-0.533-0.54-0.798
			c0.722-0.615,1.376-0.494,1.974-0.065c0.983,0.704,1.509,1.703,1.335,2.903c-0.294,2.027-1.16,3.791-2.854,5.027
			c-2.626,1.916-6.248,0.817-7.473-2.225c-0.536-1.331-0.547-2.697-0.231-4.062c0.354-1.528,1.019-2.912,2.053-4.121
			c1.806-2.113,3.903-3.877,6.222-5.399c3.181-2.088,6.571-3.766,10.096-5.174c4.01-1.603,7.827-3.581,11.465-5.897
			c1.159-0.738,2.268-1.564,3.348-2.416c4.178-3.295,6.633-7.596,7.481-12.848c0.428-2.647,0.841-5.297,0.213-7.949
			c-1.434-6.057-5.075-10.449-10.455-13.432c-1.342-0.744-2.766-1.395-4.332-1.574c-0.917,0.452-1.392,1.305-1.992,2.019
			c-4.478,5.32-9.96,9.219-16.489,11.612c-2.618,0.96-5.328,1.359-8.123,0.979c-0.96-0.13-1.905-0.362-2.578-1.063
			c-0.453-0.473-0.817-1.114-0.99-1.743c-0.111-0.403,0.198-0.921,0.394-1.679c0.487,0.513,0.837,0.752,1.007,1.084
			c0.673,1.317,1.79,1.755,3.181,1.801c1.823,0.06,3.635-0.045,5.368-0.608c6.812-2.212,12.463-6.143,17.028-11.65
			c0.163-0.197,0.284-0.43,0.412-0.654c0.036-0.063,0.026-0.153,0.04-0.25c-0.36-0.67-1.043-0.498-1.589-0.497
			c-5.725,0.002-11.343,0.631-16.647,2.992c-1.651,0.735-3.303,1.466-4.967,2.168c-0.372,0.157-0.797,0.186-1.198,0.274
			c-0.334-0.843,0.328-0.996,0.681-1.231c2.307-1.541,4.874-2.564,7.459-3.502c5.084-1.846,10.373-2.405,15.753-2.258
			c0.602,0.016,1.202,0.081,1.803,0.116c0.083,0.005,0.168-0.034,0.484-0.103c0.355-0.457,0.908-1.01,1.273-1.667
			c2.008-3.61,4.151-7.161,5.9-10.896c1.827-3.902,2.881-8.104,3.737-12.33c1.208-5.959,1.268-11.972,0.659-17.999
			c-0.859-8.505-3.821-16.217-8.939-23.061c-1.335-1.785-2.815-3.496-4.424-5.036c-3.496-3.345-7.395-6.18-11.601-8.588
			c-6.824-3.906-14.027-6.984-21.44-9.538c-5.343-1.841-10.886-2.396-16.553-1.989c-8.449,0.607-16.439,2.832-24.016,6.536
			c-5.867,2.868-11.052,6.646-15.081,11.891c-2.122,2.762-3.697,5.795-4.939,9.028c-0.432,1.124-0.327,2.094,0.27,3.181
			c0.951,1.729,1.758,3.548,2.505,5.378c1.586,3.887,2.152,7.964,2.005,12.142C327.312,93.259,327.341,94.501,325.804,95.631z"/>
		
			<linearGradient id="SVGID_00000125567141359412419120000007607521798142654654_" gradientUnits="userSpaceOnUse" x1="54.6722" y1="381.5067" x2="185.4362" y2="381.5067">
			<stop  offset="0" style="stop-color:#8C540A"/>
			<stop  offset="1" style="stop-color:#F7CD54"/>
		</linearGradient>
		<path style="fill:url(#SVGID_00000125567141359412419120000007607521798142654654_);" d="M113.923,437.732
			c-2.334,0.974-4.513,2.014-6.779,2.803c-6.74,2.348-13.664,3.446-20.821,2.792c-2.85-0.26-5.587-0.998-8.309-1.806
			c-1.236-0.367-2.44-0.842-3.656-1.275c-8.054-2.865-13.339-8.584-16.671-16.271c-2.159-4.98-2.763-10.281-2.981-15.637
			c-0.34-8.375,1.925-16.176,5.332-23.713c3.475-7.687,8.02-14.633,14.173-20.469c1.051-0.997,2.049-2.051,3.182-3.19
			c-0.506-0.338-0.839-0.573-1.184-0.789c-6.237-3.891-8.971-9.679-8.512-16.828c0.378-5.88,2.307-11.332,6.643-15.58
			c4.282-4.194,9.398-6.894,15.327-8.024c4.102-0.782,8.232-0.587,12.363-0.523c1.635,0.025,3.27,0.084,4.905,0.097
			c1.057,0.008,2.041-0.301,2.935-0.864c1.064-0.67,1.8-1.612,2.102-2.834c0.335-1.357,0.348-2.743-0.013-4.094
			c-0.541-2.029-2.002-3.196-4.103-3.305c-0.683-0.035-1.378,0.017-2.059,0.099c-1.733,0.209-3.101,0.98-3.854,2.638
			c-0.138,0.305-0.299,0.599-0.489,0.977c-0.595-0.369-0.403-0.911-0.303-1.315c0.307-1.234,1.108-2.128,2.203-2.735
			c1.718-0.952,3.59-1.261,5.501-0.934c1.579,0.27,2.875,1.109,3.717,2.545c1.306,2.227,1.464,4.607,0.628,6.97
			c-0.956,2.706-3.082,4.076-5.891,4.314c-1.368,0.116-2.753,0.036-4.13,0.018c-2.497-0.032-4.994-0.135-7.49-0.116
			c-7.056,0.054-13.348,2.274-18.794,6.793c-2.85,2.364-4.941,5.284-6.057,8.822c-0.619,1.963-1.218,3.969-1.485,6.001
			c-0.714,5.426,0.739,10.237,4.614,14.202c1.334,1.365,2.873,2.457,4.656,3.08c0.995-0.07,1.57-0.779,2.257-1.267
			c3.941-2.797,8.027-5.333,12.515-7.182c2.26-0.932,4.572-1.559,7.028-1.345c0.928,0.081,1.846,0.367,2.747,0.633
			c0.273,0.081,0.475,0.406,1.076,0.952c-0.974-0.112-1.477-0.107-1.945-0.235c-2.354-0.643-4.642-0.247-6.839,0.572
			c-5.038,1.878-9.6,4.631-13.879,7.866c-0.127,0.096-0.189,0.278-0.281,0.419c1.465,1.129,5.894,1.354,9.663,0.589
			c3.291-0.668,5.792-2.918,8.649-4.306c0.541,0.374,0.301,0.726,0.09,0.94c-0.78,0.79-1.526,1.65-2.429,2.276
			c-4.098,2.844-8.689,3.581-13.551,2.922c-1.527-0.207-3.038-0.533-4.642-0.819c-0.448,0.355-0.935,0.701-1.378,1.097
			c-8.18,7.321-14.122,16.165-17.987,26.427c-1.521,4.038-2.941,8.109-3.241,12.449c-0.196,2.828-0.367,5.678-0.236,8.504
			c0.208,4.483,0.87,8.922,2.639,13.1c3.13,7.394,8.155,12.884,15.895,15.595c0.812,0.285,1.616,0.592,2.427,0.88
			c8.773,3.113,17.58,2.78,26.409,0.26c4.175-1.192,6.823-2.311,9.747-4.121c0.439-0.898,0.113-1.828-0.014-2.75
			c-0.69-5.014,0.305-9.764,2.282-14.345c0.371-0.86,0.902-1.669,1.463-2.423c0.853-1.146,2.014-1.88,3.455-2.06
			c3.152-0.392,5.059,1.017,5.389,4.376c0.053,0.541,0.234,1.234-0.662,1.632c-0.453-0.428-0.332-1.032-0.364-1.573
			c-0.079-1.374-0.48-2.609-1.884-3.105c-1.564-0.552-3.123-0.377-4.299,0.883c-0.752,0.805-1.401,1.758-1.892,2.745
			c-1.965,3.947-2.645,10.432-1.613,15.056c0.379-0.157,0.791-0.227,1.07-0.458c3.017-2.494,5.659-5.283,7.084-9.038
			c0.257-0.676,0.424-1.487,1.192-1.829c0.669,0.385,0.465,0.941,0.382,1.398c-0.356,1.977-1.113,3.789-2.332,5.401
			c-1.461,1.932-3.106,3.685-4.995,5.206c-0.665,0.536-1.322,1.083-2.057,1.686c0.375,3.238,1.36,6.238,3.107,8.95
			c1.743,2.705,3.919,4.995,6.747,6.636c4.8,2.786,9.784,2.93,14.926,1.181c3.49-1.188,6.492-3.187,9.09-5.755
			c1.464-1.447,2.803-3.036,4.075-4.658c1.7-2.167,3.292-4.419,4.909-6.65c2.534-3.497,5.354-6.757,8.497-9.705
			c1.748-1.639,3.712-3.068,5.682-4.444c1.567-1.094,3.379-1.701,5.32-1.804c4.235-0.225,7.115,2.247,7.454,6.48
			c0.095,1.191,0.118,2.431-0.104,3.595c-0.476,2.496-2.851,4.025-5.176,3.483c-0.33-0.077-0.656-0.207-0.956-0.367
			c-0.921-0.491-1.443-1.309-1.352-2.318c0.096-1.061,0.681-1.927,1.678-2.424c0.112-0.056,0.351,0.017,0.459,0.112
			c0.109,0.096,0.207,0.315,0.173,0.444c-0.129,0.494-0.358,0.965-0.464,1.462c-0.151,0.703,0.418,1.427,1.087,1.466
			c1.298,0.075,2.463-0.697,2.697-1.913c0.293-1.523,0.468-3.049,0.024-4.602c-0.664-2.325-2.235-3.64-4.655-3.757
			c-1.971-0.095-3.779,0.512-5.355,1.603c-1.835,1.27-3.654,2.606-5.273,4.133c-3.073,2.897-5.839,6.09-8.344,9.499
			c-1.58,2.151-3.149,4.311-4.721,6.468c-2.041,2.801-4.393,5.294-7.154,7.404c-3.497,2.673-7.392,4.388-11.766,4.926
			c-5.546,0.682-10.4-0.997-14.551-4.626c-3.593-3.141-6.003-7.059-7.072-11.756C114.393,439.004,114.133,438.378,113.923,437.732z"
			/>
		
			<linearGradient id="SVGID_00000088106525811762750070000018380606144188522935_" gradientUnits="userSpaceOnUse" x1="64.2825" y1="148.1863" x2="192.5771" y2="148.1863">
			<stop  offset="0" style="stop-color:#8C540A"/>
			<stop  offset="1" style="stop-color:#F7CD54"/>
		</linearGradient>
		<path style="fill:url(#SVGID_00000088106525811762750070000018380606144188522935_);" d="M93.103,154.453
			c-0.445-0.197-0.882-0.426-1.342-0.59c-2.834-1.014-5.675-2.008-8.51-3.02c-3.322-1.185-6.066-3.256-8.474-5.76
			c-3.864-4.018-6.832-8.625-8.784-13.869c-1.062-2.852-1.585-5.781-1.691-8.83c-0.185-5.277,0.959-10.222,3.064-15.041
			c3.85-8.813,9.654-16.028,17.29-21.822c6.594-5.003,14.061-7.558,22.29-7.846c4.041-0.142,8.097-0.162,12.096,0.676
			c5.12,1.073,9.943,2.789,13.943,6.33c0.18,0.159,0.435,0.233,0.712,0.376c0.73-0.476,0.778-1.318,1.068-1.986
			c1.841-4.244,4.351-8.013,7.765-11.154c2.833-2.606,6.056-4.512,9.797-5.537c1.938-0.531,3.895-0.699,5.883-0.609
			c2.404,0.109,4.515,1.039,6.413,2.463c2.455,1.843,4.305,4.203,5.714,6.912c2.323,4.467,3.737,9.225,4.702,14.158
			c0.677,3.456,1.596,6.868,2.509,10.272c0.354,1.319,0.913,2.601,1.525,3.827c0.455,0.912,1.036,1.813,1.746,2.537
			c3.563,3.637,9.214,1.127,10.025-2.052c0.397-1.554,0.173-2.907-0.779-4.134c-0.914-1.179-2.114-1.741-3.636-1.366
			c-0.568,0.14-1.132,0.301-1.658,0.441c-0.416-0.437-0.112-0.715,0.125-0.911c1.779-1.466,3.601-1.477,5.386-0.064
			c3.115,2.467,3.063,7.173-0.186,9.607c-3.881,2.908-8.682,2.032-11.217-1.475c-1.383-1.913-2.2-4.082-2.893-6.308
			c-1.307-4.199-2.191-8.498-2.968-12.82c-0.691-3.846-2.031-7.465-3.789-10.942c-0.901-1.782-2.035-3.402-3.404-4.846
			c-3.205-3.379-7.038-4.711-11.697-3.795c-4.755,0.936-8.64,3.305-11.96,6.719c-3.421,3.516-5.827,7.643-7.357,12.37
			c1.996,3.18,4.229,6.295,3.96,10.36c-0.862,0.013-0.794-0.603-0.891-1.069c-0.643-3.086-1.309-4.558-3.289-7.103
			c-0.173,0.329-0.415,0.579-0.419,0.832c-0.024,1.546-0.044,3.095,0.034,4.639c0.062,1.227,0.547,2.346,1.276,3.333
			c0.636,0.861,1.368,1.603,2.698,1.217c-0.669,0.941-1.04,1.104-1.645,0.759c-1.239-0.707-2.142-1.738-2.682-3.048
			c-0.801-1.943-1.097-3.975-0.877-6.071c0.116-1.107,0.255-2.212,0.381-3.303c-1.736-2.005-3.801-3.368-6.077-4.434
			c-3.856-1.803-7.898-2.927-12.147-3.291c-4.743-0.406-9.454-0.287-14.147,0.609C95.48,80.85,90.47,83,85.965,86.332
			c-8.769,6.486-15.078,14.818-18.569,25.167c-2.306,6.834-2.295,13.662,0.53,20.433c2.059,4.935,5.042,9.192,8.809,12.932
			c1.788,1.775,3.805,3.276,6.17,4.167c3.218,1.211,6.498,2.257,9.736,3.417c1.413,0.506,2.587,0.439,3.796-0.638
			c1.358-1.209,3.062-1.947,4.815-2.416c2.313-0.619,4.619-0.762,6.551,1.067c0.226,0.214,0.305,0.588,0.433,0.895
			c0.015,0.037-0.092,0.125-0.242,0.316c-0.243-0.131-0.542-0.236-0.771-0.425c-1.397-1.152-2.96-1.244-4.632-0.798
			c-1.908,0.509-3.702,1.228-5.434,2.652c3.473,1.357,6.709,0.121,10.296,0.127c-0.551,0.642-0.789,1.174-1.17,1.312
			c-0.96,0.347-1.973,0.649-2.984,0.727c-2.145,0.166-4.301,0.2-6.429-0.277c-0.498-0.112-1.021-0.113-1.644-0.177
			c-1.307,0.959-2.276,2.282-3.18,3.623c-3.966,5.886-6.426,12.357-7.215,19.418c-0.547,4.898,0.319,9.595,2.288,14.11
			c1.649,3.783,4.322,6.578,7.916,8.555c2.496,1.373,5.09,2.512,7.756,3.509c2.58,0.965,5.119,2.015,7.54,3.358
			c2.914,1.616,5.356,3.804,7.439,6.323c2.601,3.146,3.664,6.8,2.426,10.867c-1.959,6.435-9.304,8.124-13.894,3.183
			c-0.696-0.749-1.261-1.637-1.788-2.52c-1.055-1.767-0.997-3.616-0.177-5.452c0.885-1.984,2.561-2.762,4.657-2.213
			c1.991,0.522,3.756,2.684,3.778,4.744c0.006,0.569-0.115,1.255-1.076,1.175c-0.231-0.702-0.442-1.436-0.715-2.147
			c-0.314-0.82-0.816-1.507-1.591-1.972c-1.586-0.951-3.062-0.465-3.782,1.238c-0.42,0.994-0.491,2.006-0.174,3.029
			c0.904,2.906,3.895,5.251,6.914,5.425c2.138,0.123,3.922-0.614,5.128-2.406c1.556-2.314,2.248-4.846,1.384-7.604
			c-0.622-1.987-1.63-3.721-3.118-5.261c-3.43-3.551-7.536-5.942-12.085-7.724c-2.721-1.066-5.393-2.267-8.042-3.504
			c-6.312-2.948-9.882-8.064-11.524-14.705c-1.293-5.228-1.073-10.412,0.262-15.584c1.634-6.333,4.287-12.165,8.495-17.231
			C92.954,154.922,92.986,154.736,93.103,154.453z"/>
		
			<linearGradient id="SVGID_00000011024855715960454980000012375322918168938891_" gradientUnits="userSpaceOnUse" x1="388.9532" y1="144.7211" x2="391.1169" y2="144.7211">
			<stop  offset="0" style="stop-color:#8C540A"/>
			<stop  offset="1" style="stop-color:#F7CD54"/>
		</linearGradient>
		<path style="fill:url(#SVGID_00000011024855715960454980000012375322918168938891_);" d="M389.454,145.978
			c-0.134-0.141-0.398-0.292-0.45-0.496c-0.248-0.987,0.441-2.003,1.403-2.019c0.237-0.004,0.656,0.341,0.689,0.57
			c0.124,0.854-0.325,1.474-1.064,1.874C389.895,145.982,389.701,145.952,389.454,145.978z"/>
		
			<linearGradient id="SVGID_00000060710252219912361700000010053664559984392375_" gradientUnits="userSpaceOnUse" x1="395.2664" y1="369.3748" x2="397.2123" y2="369.3748">
			<stop  offset="0" style="stop-color:#8C540A"/>
			<stop  offset="1" style="stop-color:#F7CD54"/>
		</linearGradient>
		<path style="fill:url(#SVGID_00000060710252219912361700000010053664559984392375_);" d="M395.273,370.094
			c-0.077-1.052,0.576-1.745,1.344-1.684c0.2,0.016,0.485,0.216,0.555,0.399c0.256,0.668-0.751,1.694-1.471,1.512
			C395.474,370.264,395.276,370.096,395.273,370.094z"/>
		
			<linearGradient id="SVGID_00000084502415249178945990000011491757638365171902_" gradientUnits="userSpaceOnUse" x1="352.3062" y1="413.7768" x2="353.8464" y2="413.7768">
			<stop  offset="0" style="stop-color:#8C540A"/>
			<stop  offset="1" style="stop-color:#F7CD54"/>
		</linearGradient>
		<path style="fill:url(#SVGID_00000084502415249178945990000011491757638365171902_);" d="M353.132,414.642
			c-0.655-0.109-0.974-0.663-0.759-1.186c0.099-0.242,0.43-0.51,0.684-0.54c0.485-0.058,0.941,0.56,0.742,1.011
			C353.659,414.241,353.308,414.462,353.132,414.642z"/>
		
			<linearGradient id="SVGID_00000100378486186019310190000007808126774499086480_" gradientUnits="userSpaceOnUse" x1="101.7831" y1="354.5942" x2="103.4018" y2="354.5942">
			<stop  offset="0" style="stop-color:#8C540A"/>
			<stop  offset="1" style="stop-color:#F7CD54"/>
		</linearGradient>
		<path style="fill:url(#SVGID_00000100378486186019310190000007808126774499086480_);" d="M103.402,354.216
			c-0.363,0.439-0.63,0.813-0.966,1.108c-0.044,0.039-0.604-0.291-0.639-0.498c-0.097-0.578,0.307-0.902,0.846-0.964
			C102.827,353.841,103.036,354.037,103.402,354.216z"/>
		
			<linearGradient id="SVGID_00000049903188987206746860000013054548966826675620_" gradientUnits="userSpaceOnUse" x1="324.9415" y1="96.9328" x2="325.7137" y2="96.9328">
			<stop  offset="0" style="stop-color:#8C540A"/>
			<stop  offset="1" style="stop-color:#F7CD54"/>
		</linearGradient>
		<path style="fill:url(#SVGID_00000049903188987206746860000013054548966826675620_);" d="M325.714,96.987
			c-0.182,0.102-0.373,0.209-0.564,0.316c-0.069-0.202-0.139-0.405-0.208-0.607c0.206-0.05,0.411-0.119,0.619-0.132
			C325.596,96.561,325.647,96.796,325.714,96.987z"/>
		
			<linearGradient id="SVGID_00000117665524416396866980000000947920402514692279_" gradientUnits="userSpaceOnUse" x1="108.014" y1="152.8158" x2="108.7023" y2="152.8158">
			<stop  offset="0" style="stop-color:#8C540A"/>
			<stop  offset="1" style="stop-color:#F7CD54"/>
		</linearGradient>
		<path style="fill:url(#SVGID_00000117665524416396866980000000947920402514692279_);" d="M108.702,152.877
			c-0.171,0.131-0.28,0.215-0.39,0.299c-0.102-0.172-0.216-0.339-0.297-0.52c-0.018-0.04,0.083-0.132,0.129-0.2
			C108.325,152.591,108.504,152.727,108.702,152.877z"/>
	</g>
</g>
<g id="Designed_by_Freepik">
	<g>
		<g>
			<path style="fill:#191919;" d="M180.292,482.97v-0.16c-0.218,0.249-0.433,0.452-0.644,0.608
				c-0.212,0.156-0.441,0.275-0.689,0.355c-0.247,0.082-0.517,0.123-0.811,0.123c-0.388,0-0.747-0.082-1.078-0.247
				c-0.33-0.163-0.615-0.399-0.856-0.703c-0.242-0.306-0.425-0.663-0.55-1.074c-0.124-0.413-0.188-0.857-0.188-1.335
				c0-1.014,0.248-1.805,0.742-2.369c0.495-0.566,1.146-0.85,1.954-0.85c0.467,0,0.86,0.081,1.181,0.24
				c0.321,0.16,0.634,0.407,0.939,0.739v-2.393c0-0.332,0.066-0.583,0.199-0.753c0.133-0.171,0.321-0.256,0.567-0.256
				c0.245,0,0.434,0.078,0.566,0.234c0.133,0.156,0.199,0.387,0.199,0.691v7.147c0,0.309-0.071,0.54-0.214,0.694
				c-0.143,0.154-0.326,0.232-0.552,0.232c-0.222,0-0.405-0.081-0.55-0.24C180.364,483.494,180.292,483.266,180.292,482.97z
				 M177.103,480.59c0,0.439,0.068,0.813,0.205,1.121s0.323,0.542,0.561,0.697c0.237,0.157,0.497,0.235,0.777,0.235
				c0.285,0,0.545-0.074,0.781-0.224c0.235-0.147,0.423-0.375,0.563-0.681c0.141-0.308,0.211-0.69,0.211-1.149
				c0-0.432-0.07-0.803-0.211-1.113c-0.141-0.311-0.33-0.549-0.57-0.713c-0.239-0.164-0.501-0.246-0.786-0.246
				c-0.297,0-0.563,0.084-0.796,0.253c-0.233,0.167-0.415,0.409-0.543,0.724C177.168,479.809,177.103,480.174,177.103,480.59z"/>
			<path style="fill:#191919;" d="M187.439,481h-3.17c0.005,0.367,0.078,0.691,0.223,0.973c0.145,0.281,0.337,0.492,0.576,0.636
				c0.239,0.143,0.504,0.212,0.793,0.212c0.193,0,0.37-0.022,0.531-0.066c0.16-0.047,0.315-0.116,0.466-0.214
				c0.151-0.097,0.289-0.202,0.416-0.313c0.126-0.111,0.29-0.261,0.492-0.452c0.083-0.07,0.202-0.105,0.356-0.105
				c0.166,0,0.301,0.046,0.403,0.137c0.104,0.092,0.155,0.219,0.155,0.385c0,0.146-0.059,0.318-0.173,0.515
				c-0.115,0.195-0.288,0.384-0.52,0.563c-0.232,0.18-0.521,0.328-0.873,0.448c-0.35,0.118-0.753,0.179-1.208,0.179
				c-1.04,0-1.851-0.299-2.428-0.892c-0.578-0.593-0.867-1.399-0.867-2.415c0-0.479,0.07-0.924,0.214-1.332
				c0.143-0.41,0.351-0.762,0.623-1.055c0.273-0.293,0.609-0.517,1.01-0.674c0.399-0.156,0.843-0.233,1.329-0.233
				c0.634,0,1.177,0.132,1.63,0.4c0.453,0.267,0.794,0.611,1.019,1.035c0.225,0.423,0.339,0.855,0.339,1.294
				c0,0.408-0.117,0.672-0.351,0.793C188.193,480.939,187.864,481,187.439,481z M184.269,480.079h2.94
				c-0.039-0.554-0.19-0.97-0.448-1.244c-0.26-0.275-0.601-0.413-1.024-0.413c-0.404,0-0.735,0.14-0.994,0.42
				C184.482,479.119,184.326,479.533,184.269,480.079z"/>
			<path style="fill:#191919;" d="M194.826,481.775c0,0.448-0.108,0.832-0.327,1.15c-0.217,0.318-0.539,0.56-0.964,0.724
				c-0.426,0.165-0.943,0.247-1.554,0.247c-0.581,0-1.08-0.09-1.495-0.268c-0.416-0.178-0.723-0.402-0.921-0.668
				c-0.197-0.268-0.297-0.535-0.297-0.805c0-0.178,0.063-0.33,0.19-0.456c0.126-0.127,0.287-0.19,0.481-0.19
				c0.17,0,0.3,0.041,0.391,0.125c0.092,0.082,0.179,0.199,0.262,0.35c0.166,0.289,0.365,0.504,0.597,0.646
				c0.231,0.144,0.547,0.215,0.947,0.215c0.325,0,0.591-0.072,0.799-0.217c0.207-0.145,0.312-0.311,0.312-0.496
				c0-0.285-0.107-0.492-0.324-0.623c-0.216-0.131-0.571-0.256-1.066-0.375c-0.559-0.138-1.013-0.283-1.362-0.436
				c-0.351-0.151-0.63-0.353-0.841-0.602c-0.21-0.25-0.314-0.557-0.314-0.921c0-0.325,0.097-0.631,0.291-0.921
				c0.194-0.287,0.48-0.518,0.859-0.69c0.377-0.173,0.832-0.259,1.367-0.259c0.42,0,0.797,0.043,1.131,0.131
				c0.335,0.086,0.614,0.203,0.837,0.35c0.225,0.146,0.395,0.31,0.511,0.486c0.117,0.178,0.175,0.354,0.175,0.523
				c0,0.185-0.063,0.338-0.186,0.457c-0.125,0.118-0.302,0.178-0.533,0.178c-0.166,0-0.308-0.047-0.423-0.143
				c-0.117-0.096-0.251-0.236-0.401-0.428c-0.123-0.156-0.267-0.283-0.433-0.379c-0.167-0.096-0.393-0.143-0.678-0.143
				c-0.293,0-0.536,0.063-0.73,0.188c-0.194,0.123-0.291,0.278-0.291,0.465c0,0.172,0.071,0.311,0.214,0.419
				c0.143,0.108,0.334,0.199,0.576,0.271c0.241,0.07,0.573,0.156,0.998,0.261c0.502,0.123,0.912,0.27,1.231,0.439
				c0.317,0.169,0.56,0.371,0.725,0.603C194.744,481.215,194.826,481.478,194.826,481.775z"/>
			<path style="fill:#191919;" d="M196.482,476.554c-0.226,0-0.419-0.069-0.579-0.209c-0.16-0.138-0.24-0.333-0.24-0.587
				c0-0.23,0.082-0.419,0.246-0.568c0.164-0.149,0.355-0.222,0.573-0.222c0.21,0,0.395,0.067,0.558,0.202
				c0.162,0.135,0.244,0.33,0.244,0.588c0,0.249-0.08,0.444-0.238,0.584C196.888,476.482,196.699,476.554,196.482,476.554z
				 M197.284,478.227v4.684c0,0.324-0.078,0.57-0.232,0.736c-0.155,0.166-0.351,0.25-0.589,0.25c-0.237,0-0.431-0.086-0.578-0.256
				c-0.149-0.17-0.223-0.414-0.223-0.73v-4.637c0-0.32,0.073-0.561,0.223-0.724c0.147-0.163,0.341-0.243,0.578-0.243
				c0.238,0,0.434,0.08,0.589,0.243C197.206,477.712,197.284,477.938,197.284,478.227z"/>
			<path style="fill:#191919;" d="M204.385,478.494v4.707c0,0.539-0.058,1.002-0.173,1.39c-0.114,0.387-0.299,0.708-0.552,0.962
				c-0.254,0.252-0.585,0.44-0.995,0.563c-0.409,0.123-0.919,0.185-1.528,0.185c-0.558,0-1.058-0.078-1.497-0.234
				c-0.438-0.156-0.776-0.358-1.015-0.605c-0.237-0.247-0.356-0.502-0.356-0.763c0-0.198,0.067-0.359,0.202-0.484
				c0.135-0.124,0.297-0.186,0.486-0.186c0.237,0,0.445,0.104,0.624,0.313c0.087,0.107,0.177,0.217,0.27,0.325
				c0.093,0.108,0.197,0.202,0.31,0.28c0.112,0.075,0.247,0.133,0.406,0.17c0.158,0.037,0.341,0.057,0.546,0.057
				c0.42,0,0.746-0.058,0.978-0.175c0.23-0.117,0.394-0.28,0.486-0.491c0.093-0.208,0.147-0.433,0.163-0.672
				c0.017-0.24,0.028-0.625,0.036-1.156c-0.25,0.35-0.538,0.615-0.864,0.797c-0.326,0.182-0.716,0.272-1.166,0.272
				c-0.543,0-1.017-0.138-1.423-0.415c-0.405-0.277-0.717-0.665-0.935-1.163c-0.218-0.499-0.326-1.074-0.326-1.728
				c0-0.486,0.066-0.926,0.198-1.318c0.134-0.392,0.322-0.723,0.566-0.991c0.246-0.27,0.529-0.472,0.85-0.608
				c0.32-0.137,0.673-0.205,1.057-0.205c0.459,0,0.857,0.088,1.194,0.264c0.335,0.178,0.648,0.453,0.938,0.83v-0.222
				c0-0.28,0.069-0.498,0.208-0.653c0.139-0.153,0.317-0.23,0.534-0.23c0.313,0,0.521,0.103,0.623,0.305
				C204.333,477.816,204.385,478.109,204.385,478.494z M199.687,480.548c0,0.657,0.144,1.153,0.431,1.49
				c0.287,0.337,0.658,0.505,1.114,0.505c0.269,0,0.523-0.072,0.761-0.217c0.241-0.145,0.436-0.362,0.587-0.652
				c0.149-0.293,0.225-0.645,0.225-1.06c0-0.66-0.145-1.176-0.436-1.543c-0.291-0.368-0.674-0.553-1.148-0.553
				c-0.464,0-0.835,0.178-1.113,0.529C199.827,479.398,199.687,479.899,199.687,480.548z"/>
			<path style="fill:#191919;" d="M206.961,478.203v0.196c0.284-0.376,0.596-0.651,0.935-0.829c0.339-0.176,0.727-0.264,1.166-0.264
				c0.429,0,0.81,0.093,1.146,0.279c0.336,0.186,0.589,0.449,0.754,0.789c0.107,0.197,0.177,0.412,0.208,0.641
				c0.031,0.23,0.048,0.522,0.048,0.879v3.016c0,0.324-0.074,0.57-0.224,0.736c-0.147,0.166-0.34,0.25-0.578,0.25
				c-0.242,0-0.438-0.086-0.587-0.256c-0.151-0.17-0.227-0.414-0.227-0.73v-2.701c0-0.534-0.074-0.943-0.223-1.225
				c-0.149-0.283-0.443-0.426-0.889-0.426c-0.288,0-0.552,0.086-0.788,0.258c-0.238,0.174-0.412,0.41-0.522,0.711
				c-0.079,0.242-0.119,0.691-0.119,1.353v2.03c0,0.328-0.076,0.576-0.229,0.739c-0.151,0.165-0.349,0.247-0.59,0.247
				c-0.235,0-0.427-0.086-0.577-0.256c-0.149-0.17-0.226-0.414-0.226-0.73v-4.684c0-0.309,0.067-0.539,0.201-0.691
				c0.136-0.152,0.319-0.229,0.553-0.229c0.143,0,0.271,0.033,0.387,0.102c0.114,0.066,0.206,0.168,0.276,0.301
				C206.927,477.846,206.961,478.01,206.961,478.203z"/>
			<path style="fill:#191919;" d="M216.821,481h-3.17c0.004,0.367,0.078,0.691,0.223,0.973c0.145,0.281,0.337,0.492,0.576,0.636
				c0.239,0.143,0.504,0.212,0.792,0.212c0.194,0,0.371-0.022,0.532-0.066c0.16-0.047,0.315-0.116,0.466-0.214
				c0.149-0.097,0.288-0.202,0.416-0.313c0.126-0.111,0.291-0.261,0.492-0.452c0.083-0.07,0.202-0.105,0.357-0.105
				c0.166,0,0.301,0.046,0.404,0.137c0.102,0.092,0.154,0.219,0.154,0.385c0,0.146-0.058,0.318-0.173,0.515
				c-0.114,0.195-0.288,0.384-0.52,0.563c-0.232,0.18-0.521,0.328-0.872,0.448c-0.351,0.118-0.754,0.179-1.209,0.179
				c-1.041,0-1.851-0.299-2.429-0.892c-0.577-0.593-0.866-1.399-0.866-2.415c0-0.479,0.071-0.924,0.214-1.332
				c0.143-0.41,0.35-0.762,0.623-1.055c0.273-0.293,0.609-0.517,1.009-0.674c0.4-0.156,0.844-0.233,1.331-0.233
				c0.633,0,1.176,0.132,1.629,0.4c0.454,0.267,0.793,0.611,1.02,1.035c0.225,0.423,0.338,0.855,0.338,1.294
				c0,0.408-0.116,0.672-0.351,0.793C217.574,480.939,217.246,481,216.821,481z M213.651,480.079h2.938
				c-0.039-0.554-0.188-0.97-0.447-1.244c-0.26-0.275-0.601-0.413-1.024-0.413c-0.404,0-0.736,0.14-0.995,0.42
				C213.864,479.119,213.707,479.533,213.651,480.079z"/>
			<path style="fill:#191919;" d="M223.43,482.97v-0.16c-0.218,0.249-0.433,0.452-0.645,0.608c-0.212,0.156-0.441,0.275-0.688,0.355
				c-0.247,0.082-0.518,0.123-0.811,0.123c-0.388,0-0.747-0.082-1.077-0.247c-0.33-0.163-0.617-0.399-0.858-0.703
				c-0.241-0.306-0.425-0.663-0.549-1.074c-0.125-0.413-0.188-0.857-0.188-1.335c0-1.014,0.247-1.805,0.742-2.369
				c0.495-0.566,1.146-0.85,1.953-0.85c0.468,0,0.861,0.081,1.182,0.24c0.321,0.16,0.634,0.407,0.938,0.739v-2.393
				c0-0.332,0.066-0.583,0.199-0.753c0.133-0.171,0.321-0.256,0.567-0.256c0.245,0,0.434,0.078,0.566,0.234
				c0.133,0.156,0.198,0.387,0.198,0.691v7.147c0,0.309-0.07,0.54-0.213,0.694c-0.143,0.154-0.326,0.232-0.552,0.232
				c-0.222,0-0.405-0.081-0.55-0.24C223.502,483.494,223.43,483.266,223.43,482.97z M220.241,480.59
				c0,0.439,0.068,0.813,0.205,1.121s0.323,0.542,0.562,0.697c0.237,0.157,0.496,0.235,0.776,0.235c0.286,0,0.546-0.074,0.781-0.224
				c0.236-0.147,0.424-0.375,0.565-0.681c0.141-0.308,0.211-0.69,0.211-1.149c0-0.432-0.07-0.803-0.211-1.113
				c-0.141-0.311-0.331-0.549-0.57-0.713c-0.24-0.164-0.502-0.246-0.787-0.246c-0.296,0-0.562,0.084-0.795,0.253
				c-0.233,0.167-0.414,0.409-0.543,0.724C220.306,479.809,220.241,480.174,220.241,480.59z"/>
			<path style="fill:#191919;" d="M230.055,475.822v2.476c0.305-0.316,0.615-0.56,0.933-0.728c0.315-0.167,0.708-0.252,1.176-0.252
				c0.538,0,1.009,0.127,1.416,0.383c0.405,0.256,0.72,0.626,0.943,1.111c0.224,0.482,0.336,1.059,0.336,1.725
				c0,0.49-0.061,0.939-0.186,1.35c-0.125,0.409-0.307,0.764-0.543,1.065c-0.238,0.302-0.526,0.535-0.865,0.698
				c-0.338,0.165-0.712,0.247-1.118,0.247c-0.25,0-0.484-0.029-0.704-0.09c-0.22-0.06-0.407-0.137-0.562-0.234
				c-0.153-0.096-0.286-0.196-0.394-0.3c-0.109-0.103-0.253-0.258-0.431-0.463v0.16c0,0.306-0.073,0.536-0.22,0.692
				c-0.147,0.156-0.332,0.234-0.558,0.234c-0.229,0-0.413-0.078-0.549-0.234c-0.137-0.156-0.205-0.387-0.205-0.692v-7.077
				c0-0.328,0.066-0.576,0.198-0.744c0.132-0.167,0.318-0.252,0.556-0.252c0.249,0,0.44,0.08,0.575,0.24
				C229.987,475.297,230.055,475.525,230.055,475.822z M230.132,480.637c0,0.647,0.148,1.141,0.442,1.486
				c0.295,0.348,0.682,0.521,1.161,0.521c0.407,0,0.759-0.177,1.054-0.53c0.294-0.355,0.441-0.862,0.441-1.523
				c0-0.428-0.061-0.797-0.184-1.104c-0.122-0.31-0.296-0.549-0.521-0.716c-0.226-0.169-0.489-0.253-0.79-0.253
				c-0.309,0-0.585,0.084-0.825,0.253c-0.242,0.167-0.432,0.411-0.57,0.729C230.201,479.818,230.132,480.197,230.132,480.637z"/>
			<path style="fill:#191919;" d="M236.96,484.098l0.148-0.363l-1.995-5.022c-0.123-0.288-0.185-0.498-0.185-0.629
				c0-0.139,0.036-0.268,0.107-0.385c0.071-0.119,0.169-0.215,0.294-0.285c0.124-0.072,0.254-0.107,0.389-0.107
				c0.233,0,0.409,0.074,0.528,0.223c0.119,0.148,0.224,0.361,0.314,0.639l1.372,3.988l1.3-3.711
				c0.104-0.299,0.196-0.535,0.279-0.705c0.083-0.171,0.171-0.285,0.264-0.344c0.093-0.061,0.225-0.09,0.396-0.09
				c0.123,0,0.24,0.031,0.352,0.098s0.2,0.154,0.261,0.266c0.062,0.109,0.094,0.227,0.094,0.349
				c-0.018,0.075-0.042,0.182-0.078,0.321c-0.036,0.138-0.079,0.279-0.131,0.421l-2.114,5.533c-0.182,0.485-0.36,0.868-0.534,1.146
				c-0.174,0.277-0.404,0.49-0.691,0.639c-0.287,0.148-0.674,0.222-1.161,0.222c-0.476,0-0.831-0.052-1.068-0.153
				c-0.238-0.105-0.357-0.293-0.357-0.565c0-0.185,0.057-0.33,0.17-0.432c0.112-0.1,0.279-0.15,0.5-0.15
				c0.088,0,0.174,0.012,0.257,0.036c0.102,0.023,0.191,0.036,0.266,0.036c0.187,0,0.334-0.029,0.44-0.085
				c0.108-0.055,0.202-0.149,0.288-0.288C236.751,484.565,236.849,484.362,236.96,484.098z"/>
		</g>
		<g>
			<path style="fill:#191919;" d="M260.441,477.447h0.388v-0.487c0-0.509,0.061-0.911,0.191-1.211
				c0.127-0.299,0.347-0.517,0.654-0.653c0.307-0.135,0.727-0.203,1.26-0.203c0.95,0,1.422,0.228,1.422,0.697
				c0,0.148-0.05,0.276-0.15,0.384c-0.097,0.104-0.215,0.16-0.35,0.16c-0.061,0-0.173-0.013-0.329-0.038
				c-0.148-0.021-0.282-0.034-0.39-0.034c-0.292,0-0.479,0.088-0.565,0.259c-0.079,0.172-0.122,0.419-0.122,0.741v0.386h0.396
				c0.619,0,0.926,0.186,0.926,0.559c0,0.263-0.079,0.433-0.246,0.504c-0.163,0.071-0.389,0.107-0.68,0.107h-0.396v4.294
				c0,0.318-0.075,0.563-0.23,0.729c-0.151,0.17-0.347,0.254-0.59,0.254c-0.229,0-0.419-0.084-0.574-0.254
				c-0.152-0.167-0.227-0.411-0.227-0.729v-4.294h-0.447c-0.243,0-0.426-0.053-0.558-0.164c-0.131-0.107-0.197-0.25-0.197-0.424
				C259.627,477.639,259.898,477.447,260.441,477.447L260.441,477.447z"/>
			<path style="fill:#191919;" d="M265.749,481.557v1.354c0,0.327-0.083,0.573-0.234,0.737c-0.153,0.166-0.349,0.246-0.586,0.246
				s-0.43-0.082-0.578-0.25c-0.148-0.164-0.227-0.41-0.227-0.733v-4.515c0-0.729,0.263-1.094,0.789-1.094
				c0.271,0,0.464,0.084,0.583,0.256c0.119,0.17,0.185,0.421,0.198,0.756c0.192-0.335,0.391-0.586,0.594-0.756
				c0.207-0.172,0.476-0.256,0.817-0.256c0.344,0,0.671,0.084,0.992,0.256c0.322,0.17,0.481,0.397,0.481,0.678
				c0,0.197-0.069,0.363-0.203,0.488c-0.139,0.131-0.285,0.195-0.442,0.195c-0.063,0-0.206-0.039-0.432-0.113
				c-0.229-0.07-0.432-0.107-0.603-0.107c-0.238,0-0.434,0.065-0.582,0.186c-0.151,0.129-0.271,0.311-0.353,0.555
				c-0.08,0.246-0.137,0.541-0.171,0.877C265.763,480.656,265.749,481.068,265.749,481.557L265.749,481.557z"/>
			<path style="fill:#191919;" d="M273.201,480.998h-3.172c0.006,0.367,0.078,0.693,0.222,0.975c0.146,0.277,0.337,0.49,0.577,0.635
				c0.241,0.143,0.503,0.212,0.794,0.212c0.194,0,0.37-0.021,0.531-0.069c0.159-0.043,0.315-0.116,0.465-0.213
				c0.151-0.095,0.289-0.199,0.416-0.313c0.127-0.109,0.291-0.26,0.494-0.449c0.084-0.07,0.202-0.108,0.355-0.108
				c0.167,0,0.3,0.046,0.405,0.138c0.103,0.094,0.152,0.221,0.152,0.387c0,0.146-0.057,0.316-0.167,0.512
				c-0.117,0.198-0.29,0.385-0.522,0.566c-0.234,0.179-0.525,0.33-0.874,0.445c-0.35,0.12-0.754,0.18-1.208,0.18
				c-1.044,0-1.853-0.295-2.43-0.889c-0.578-0.596-0.869-1.4-0.869-2.418c0-0.478,0.073-0.924,0.217-1.334
				c0.141-0.412,0.348-0.76,0.624-1.055c0.272-0.295,0.607-0.518,1.009-0.674c0.398-0.155,0.841-0.233,1.329-0.233
				c0.633,0,1.176,0.134,1.631,0.403c0.451,0.265,0.796,0.609,1.017,1.033c0.226,0.426,0.338,0.856,0.338,1.297
				c0,0.405-0.117,0.669-0.35,0.791C273.953,480.938,273.625,480.998,273.201,480.998L273.201,480.998z M270.029,480.076h2.939
				c-0.039-0.553-0.186-0.969-0.445-1.241c-0.262-0.276-0.6-0.413-1.026-0.413c-0.404,0-0.736,0.137-0.994,0.418
				C270.242,479.119,270.084,479.531,270.029,480.076L270.029,480.076z"/>
			<path style="fill:#191919;" d="M279.944,480.998h-3.171c0.004,0.367,0.078,0.693,0.221,0.975c0.146,0.277,0.337,0.49,0.576,0.635
				c0.24,0.143,0.504,0.212,0.795,0.212c0.192,0,0.37-0.021,0.528-0.069c0.162-0.043,0.315-0.116,0.469-0.213
				c0.151-0.095,0.288-0.199,0.415-0.313c0.124-0.109,0.29-0.26,0.493-0.449c0.084-0.07,0.204-0.108,0.356-0.108
				c0.167,0,0.302,0.046,0.406,0.138c0.103,0.094,0.15,0.221,0.15,0.387c0,0.146-0.055,0.316-0.171,0.512
				c-0.111,0.198-0.285,0.385-0.52,0.566c-0.232,0.179-0.524,0.33-0.873,0.445c-0.348,0.12-0.754,0.18-1.208,0.18
				c-1.043,0-1.851-0.295-2.43-0.889c-0.578-0.596-0.868-1.4-0.868-2.418c0-0.478,0.071-0.924,0.217-1.334
				c0.142-0.412,0.35-0.76,0.623-1.055c0.272-0.295,0.607-0.518,1.008-0.674c0.4-0.155,0.846-0.233,1.331-0.233
				c0.632,0,1.175,0.134,1.634,0.403c0.451,0.265,0.791,0.609,1.014,1.033c0.225,0.426,0.341,0.856,0.341,1.297
				c0,0.405-0.12,0.669-0.351,0.791C280.695,480.938,280.367,480.998,279.944,480.998L279.944,480.998z M276.773,480.076h2.939
				c-0.04-0.553-0.19-0.969-0.446-1.241c-0.264-0.276-0.602-0.413-1.027-0.413c-0.404,0-0.734,0.137-0.996,0.418
				C276.984,479.119,276.826,479.531,276.773,480.076L276.773,480.076z"/>
			<path style="fill:#191919;" d="M283.495,478.215v0.194c0.304-0.375,0.621-0.651,0.953-0.827c0.324-0.178,0.698-0.267,1.113-0.267
				c0.497,0,0.96,0.13,1.38,0.386c0.42,0.259,0.75,0.635,0.994,1.129c0.243,0.497,0.366,1.08,0.366,1.758
				c0,0.498-0.071,0.957-0.21,1.376c-0.141,0.417-0.336,0.767-0.581,1.05c-0.245,0.281-0.535,0.502-0.868,0.654
				c-0.34,0.15-0.695,0.227-1.081,0.227c-0.461,0-0.852-0.092-1.165-0.279c-0.314-0.184-0.614-0.459-0.901-0.816v2.433
				c0,0.71-0.261,1.069-0.778,1.069c-0.307,0-0.505-0.092-0.606-0.274c-0.095-0.187-0.146-0.453-0.146-0.808v-6.995
				c0-0.31,0.067-0.537,0.2-0.692c0.134-0.15,0.319-0.229,0.553-0.229c0.231,0,0.417,0.078,0.56,0.234
				C283.424,477.696,283.495,477.918,283.495,478.215L283.495,478.215z M286.673,480.57c0-0.428-0.065-0.797-0.196-1.102
				c-0.131-0.308-0.312-0.542-0.541-0.705c-0.229-0.164-0.489-0.248-0.77-0.248c-0.446,0-0.824,0.178-1.13,0.527
				c-0.309,0.354-0.463,0.873-0.463,1.559c0,0.641,0.152,1.145,0.46,1.504c0.304,0.357,0.679,0.535,1.133,0.535
				c0.268,0,0.519-0.078,0.749-0.231c0.231-0.159,0.415-0.392,0.552-0.704C286.603,481.391,286.673,481.013,286.673,480.57
				L286.673,480.57z"/>
			<path style="fill:#191919;" d="M289.935,476.549c-0.228,0-0.419-0.07-0.578-0.209c-0.162-0.139-0.241-0.333-0.241-0.586
				c0-0.229,0.082-0.418,0.248-0.568c0.163-0.146,0.354-0.223,0.571-0.223c0.212,0,0.396,0.067,0.558,0.2
				c0.162,0.137,0.244,0.333,0.244,0.591c0,0.25-0.079,0.444-0.235,0.585C290.342,476.478,290.154,476.549,289.935,476.549
				L289.935,476.549z M290.736,478.224v4.689c0,0.322-0.077,0.568-0.23,0.732c-0.156,0.168-0.351,0.25-0.589,0.25
				c-0.237,0-0.429-0.084-0.58-0.254c-0.146-0.173-0.222-0.416-0.222-0.728v-4.643c0-0.318,0.075-0.559,0.222-0.721
				c0.151-0.166,0.343-0.246,0.58-0.246c0.238,0,0.433,0.08,0.589,0.246C290.659,477.711,290.736,477.936,290.736,478.224
				L290.736,478.224z"/>
			<path style="fill:#191919;" d="M295.962,483.155l-1.427-2.354l-0.881,0.83v1.29c0,0.313-0.083,0.552-0.248,0.719
				c-0.16,0.17-0.354,0.254-0.566,0.254c-0.248,0-0.446-0.082-0.588-0.25c-0.142-0.164-0.215-0.41-0.215-0.733v-6.915
				c0-0.357,0.072-0.631,0.207-0.82c0.14-0.191,0.341-0.283,0.596-0.283c0.25,0,0.446,0.085,0.594,0.258
				c0.146,0.168,0.221,0.42,0.221,0.75v3.934l1.823-1.914c0.226-0.234,0.396-0.4,0.517-0.486c0.118-0.086,0.263-0.131,0.431-0.131
				c0.204,0,0.371,0.064,0.511,0.193c0.132,0.129,0.2,0.291,0.2,0.483c0,0.237-0.222,0.556-0.659,0.95l-0.861,0.791l1.662,2.613
				c0.121,0.196,0.212,0.34,0.265,0.441c0.053,0.1,0.082,0.199,0.082,0.288c0,0.259-0.072,0.459-0.214,0.61
				c-0.141,0.148-0.327,0.221-0.553,0.221c-0.198,0-0.354-0.051-0.459-0.16C296.292,483.627,296.145,483.432,295.962,483.155
				L295.962,483.155z"/>
			<path style="fill:#191919;" d="M299.485,483.895c-0.245,0-0.455-0.079-0.633-0.238c-0.179-0.156-0.268-0.378-0.268-0.664
				c0-0.242,0.086-0.449,0.256-0.623c0.172-0.175,0.38-0.262,0.63-0.262c0.249,0,0.461,0.087,0.64,0.258
				c0.175,0.172,0.265,0.383,0.265,0.627c0,0.281-0.09,0.504-0.265,0.661C299.931,483.815,299.723,483.895,299.485,483.895
				L299.485,483.895z"/>
			<path style="fill:#191919;" d="M307.549,481.889c0,0.199-0.061,0.417-0.182,0.646c-0.119,0.23-0.305,0.447-0.554,0.655
				c-0.247,0.208-0.558,0.378-0.935,0.503c-0.376,0.126-0.801,0.191-1.27,0.191c-1.004,0-1.786-0.294-2.35-0.876
				c-0.559-0.585-0.841-1.368-0.841-2.351c0-0.666,0.128-1.253,0.387-1.765c0.255-0.509,0.628-0.904,1.113-1.183
				c0.487-0.281,1.073-0.419,1.747-0.419c0.422,0,0.805,0.061,1.158,0.185c0.351,0.122,0.646,0.281,0.892,0.474
				c0.241,0.196,0.428,0.403,0.555,0.62c0.13,0.22,0.193,0.426,0.193,0.617s-0.071,0.357-0.215,0.492
				c-0.147,0.135-0.322,0.203-0.523,0.203c-0.137,0-0.249-0.035-0.339-0.104c-0.09-0.071-0.19-0.183-0.299-0.34
				c-0.199-0.299-0.404-0.526-0.623-0.674c-0.215-0.152-0.488-0.227-0.821-0.227c-0.477,0-0.864,0.186-1.159,0.561
				c-0.292,0.373-0.439,0.888-0.439,1.533c0,0.306,0.039,0.588,0.115,0.843c0.073,0.255,0.182,0.472,0.324,0.653
				c0.145,0.18,0.315,0.314,0.517,0.408c0.203,0.096,0.427,0.141,0.665,0.141c0.326,0,0.604-0.074,0.836-0.225
				c0.235-0.151,0.439-0.379,0.616-0.689c0.099-0.182,0.205-0.324,0.319-0.428c0.113-0.102,0.255-0.154,0.422-0.154
				c0.198,0,0.362,0.076,0.491,0.226C307.482,481.557,307.549,481.72,307.549,481.889L307.549,481.889z"/>
			<path style="fill:#191919;" d="M314.544,480.6c0,0.481-0.075,0.928-0.222,1.338c-0.154,0.407-0.37,0.758-0.656,1.049
				c-0.284,0.293-0.626,0.518-1.021,0.676c-0.399,0.153-0.844,0.234-1.337,0.234c-0.49,0-0.933-0.081-1.326-0.24
				c-0.389-0.156-0.731-0.384-1.016-0.676c-0.288-0.298-0.506-0.646-0.658-1.049c-0.143-0.401-0.219-0.846-0.219-1.332
				c0-0.49,0.077-0.94,0.224-1.348c0.151-0.41,0.369-0.758,0.649-1.045c0.282-0.29,0.621-0.512,1.02-0.67
				c0.403-0.156,0.844-0.234,1.326-0.234c0.491,0,0.936,0.078,1.337,0.24c0.399,0.156,0.74,0.383,1.028,0.674
				c0.285,0.296,0.502,0.643,0.649,1.045C314.47,479.669,314.544,480.111,314.544,480.6L314.544,480.6z M312.917,480.6
				c0-0.661-0.147-1.175-0.436-1.543c-0.289-0.371-0.681-0.554-1.172-0.554c-0.317,0-0.598,0.082-0.839,0.245
				c-0.241,0.164-0.427,0.406-0.557,0.729c-0.131,0.32-0.196,0.695-0.196,1.123c0,0.426,0.063,0.793,0.192,1.109
				c0.131,0.319,0.314,0.56,0.555,0.728c0.24,0.167,0.521,0.252,0.845,0.252c0.491,0,0.883-0.184,1.172-0.557
				C312.77,481.764,312.917,481.251,312.917,480.6L312.917,480.6z"/>
			<path style="fill:#191919;" d="M320.728,480.72v2.153c0,0.342-0.076,0.595-0.23,0.768c-0.156,0.17-0.358,0.256-0.612,0.256
				c-0.245,0-0.445-0.086-0.595-0.256c-0.153-0.173-0.231-0.426-0.231-0.768v-2.582c0-0.407-0.014-0.726-0.041-0.951
				c-0.027-0.222-0.104-0.41-0.225-0.553c-0.124-0.148-0.319-0.219-0.584-0.219c-0.53,0-0.879,0.18-1.047,0.55
				c-0.167,0.36-0.254,0.883-0.254,1.566v2.188c0,0.337-0.077,0.592-0.226,0.766c-0.156,0.171-0.355,0.258-0.604,0.258
				c-0.248,0-0.447-0.087-0.604-0.258c-0.157-0.174-0.235-0.429-0.235-0.766v-4.637c0-0.306,0.069-0.537,0.21-0.693
				c0.144-0.162,0.329-0.24,0.556-0.24c0.223,0,0.408,0.077,0.558,0.223c0.147,0.148,0.222,0.354,0.222,0.615v0.154
				c0.283-0.335,0.584-0.583,0.903-0.739c0.322-0.162,0.676-0.24,1.07-0.24c0.406,0,0.757,0.081,1.049,0.243
				c0.293,0.163,0.534,0.41,0.726,0.736c0.274-0.332,0.568-0.578,0.881-0.739c0.313-0.159,0.658-0.24,1.039-0.24
				c0.441,0,0.825,0.089,1.147,0.261c0.318,0.175,0.558,0.426,0.717,0.748c0.138,0.295,0.206,0.756,0.206,1.385v3.164
				c0,0.342-0.076,0.595-0.229,0.768c-0.154,0.17-0.359,0.256-0.612,0.256c-0.247,0-0.446-0.087-0.602-0.258
				c-0.156-0.174-0.236-0.429-0.236-0.766v-2.725c0-0.349-0.015-0.626-0.043-0.837c-0.028-0.209-0.11-0.387-0.239-0.527
				c-0.133-0.144-0.332-0.215-0.596-0.215c-0.213,0-0.416,0.065-0.609,0.191c-0.191,0.124-0.342,0.297-0.45,0.508
				C320.789,479.542,320.728,480.025,320.728,480.72L320.728,480.72z"/>
		</g>
		<g>
			<path style="fill:#191919;" d="M245.271,480.209c-0.001-0.004-0.001-0.007-0.001-0.012
				C245.27,480.202,245.27,480.205,245.271,480.209z"/>
			<path style="fill:#191919;" d="M245.352,480.727c0.002,0,0.002,0,0.002,0c-0.031-0.148-0.055-0.295-0.073-0.439
				C245.3,480.434,245.323,480.58,245.352,480.727z"/>
			<path style="fill:#191919;" d="M245.89,482.23c-0.004-0.007-0.007-0.014-0.011-0.021
				C245.883,482.217,245.886,482.224,245.89,482.23z"/>
			<path style="fill:#191919;" d="M245.839,482.13c-0.015-0.026-0.028-0.056-0.041-0.083
				C245.81,482.076,245.824,482.103,245.839,482.13z"/>
			<path style="fill:#191919;" d="M245.504,481.306c0.079,0.251,0.175,0.492,0.286,0.724c-0.113-0.236-0.207-0.479-0.284-0.724
				H245.504z"/>
			<path style="fill:#191919;" d="M251.546,473.998c0.314,0,0.544,0.025,0.81,0.068l0.075-0.476c0,0-0.732-0.226-1.694-0.146
				l-0.075-0.26c0.299-0.063,0.523-0.329,0.523-0.646c0-0.364-0.297-0.66-0.66-0.66c-0.365,0-0.661,0.296-0.661,0.66
				c0,0.316,0.225,0.583,0.522,0.646l0.084,0.289c-1.021,0.141-1.835,0.54-1.835,0.54l0.145,0.44
				c0.618-0.206,1.153-0.331,1.64-0.384C250.895,474.02,251.254,473.998,251.546,473.998z"/>
			<path style="fill:#191919;" d="M245.878,476.41l0.003-0.006c0.024-0.031,0.047-0.06,0.071-0.089l-0.196-0.142l-0.305-0.223
				c-0.017,0.023-0.497,0.466-0.876,1.279c-0.016-0.025-0.035-0.049-0.057-0.074c-0.113-0.123-0.271-0.187-0.473-0.183
				c-0.003,0-0.007,0-0.01,0c-0.125,0-0.211-0.042-0.267-0.093c0.056-0.07,0.089-0.16,0.089-0.258c0-0.23-0.188-0.418-0.419-0.418
				c-0.229,0-0.417,0.188-0.417,0.418c0,0.23,0.188,0.418,0.417,0.418c0.037,0,0.071-0.006,0.105-0.013
				c0.103,0.114,0.265,0.214,0.504,0.209c0.124-0.001,0.214,0.03,0.274,0.097c0.068,0.075,0.092,0.185,0.1,0.268
				c0,0,0,0.003-0.002,0.003c-0.272,0.743-0.195,1.669-0.195,1.669l0.662,0.025c0.014-0.337,0.061-0.926,0.232-1.395
				C245.448,476.999,245.861,476.433,245.878,476.41z"/>
			<path style="fill:#191919;" d="M257.297,474.551c-0.229,0-0.418,0.186-0.418,0.417c0,0.036,0.005,0.071,0.015,0.104
				c-0.114,0.104-0.215,0.267-0.211,0.506c0.002,0.123-0.029,0.213-0.097,0.272c-0.053,0.048-0.119,0.071-0.184,0.088
				c-0.492-0.689-1.098-1.11-1.098-1.11l-0.475,0.51c0.358,0.326,0.726,0.733,1.08,1.244c0.247,0.352,0.5,0.805,0.711,1.258
				l0.64-0.304c0,0-0.292-0.722-0.703-1.37c0.071-0.023,0.143-0.063,0.206-0.119c0.126-0.113,0.188-0.273,0.184-0.474
				c-0.001-0.13,0.041-0.218,0.093-0.276c0.072,0.055,0.161,0.09,0.258,0.09c0.231,0,0.418-0.188,0.418-0.419
				C257.715,474.737,257.528,474.551,257.297,474.551z"/>
			<path style="fill:#191919;" d="M255.636,480.301c-0.882,0.43-2.33,0.996-4.239,1.263c-0.749,0.103-1.475,0.143-2.144,0.143
				c-0.869,0-1.637-0.064-2.227-0.14c-0.673-0.085-1.198-0.189-1.52-0.261c0.077,0.244,0.171,0.487,0.284,0.724
				c0.001,0.006,0.004,0.013,0.008,0.018c0.013,0.027,0.026,0.057,0.041,0.083c0.013,0.028,0.026,0.055,0.04,0.079
				c0.004,0.008,0.007,0.015,0.011,0.021c0.189,0.355,0.417,0.684,0.676,0.967c0.9,0.986,1.816,1.141,1.825,1.143l0.015,0.002
				l0.014,0.005c0.009,0.003,0.822,0.265,2.057,0.265c1.217,0,2.411-0.245,3.548-0.728c0.842-0.432,1.64-1.086,2.034-1.669
				c0.305-0.452,0.526-0.934,0.656-1.435c0.07-0.266,0.125-0.691,0.092-1.14C256.558,479.806,256.166,480.043,255.636,480.301z"/>
			<path style="fill:#191919;" d="M246.16,476.618c-0.025,0.036-0.408,0.577-0.71,1.407c-0.226,0.623-0.216,1.527-0.216,1.539l0,0
				c0,0.213,0.013,0.424,0.036,0.633c0,0.005,0,0.008,0.001,0.012c0.002,0.026,0.007,0.052,0.01,0.078
				c0.018,0.145,0.042,0.291,0.073,0.439c0.439,0.11,3.05,0.72,5.969,0.313c1.831-0.254,3.22-0.794,4.063-1.203
				c0.701-0.34,1.151-0.648,1.325-0.773c-0.174-0.644-0.651-1.65-1.089-2.279c-1.255-1.791-2.605-2.251-3.3-2.365
				c-0.265-0.043-0.478-0.068-0.777-0.068c-0.279,0-0.627,0.022-1.09,0.071c-0.465,0.049-0.982,0.171-1.583,0.372
				c-0.843,0.282-1.604,0.726-2.204,1.281l-0.02,0.018C246.56,476.174,246.374,476.346,246.16,476.618z M253.83,476.201
				c0.601,0,1.09,0.488,1.09,1.09c0,0.601-0.489,1.09-1.09,1.09s-1.089-0.489-1.089-1.09
				C252.741,476.69,253.229,476.201,253.83,476.201z M248.679,476.158c0.973,0,1.762,0.789,1.762,1.76
				c0,0.973-0.789,1.76-1.762,1.76c-0.973,0-1.76-0.787-1.76-1.76C246.919,476.947,247.706,476.158,248.679,476.158z"/>
		</g>
	</g>
</g>
</svg>
